<svg width="1440" height="1024" viewBox="0 0 1440 1024" fill="none" xmlns="http://www.w3.org/2000/svg">
<rect width="1440" height="1024" fill="#E4E4E4"/>
<path d="M617 592V556.2H545.4V539.2L608 450.6H634.4V541.8L654.2 541.6V556.2H634.4V592H617ZM561.2 542H617C617.2 516 617.2 489.8 618.6 464.6H615.2L561.2 540.4V542ZM719.244 595C680.444 595 665.644 564.6 665.644 524.6V518.2C665.644 478 680.444 447.6 719.244 447.6C757.844 447.6 772.444 478 772.444 518.2V524.6C772.444 564.6 757.844 595 719.244 595ZM683.444 525C683.444 560.2 694.244 580.6 719.244 580.6C744.044 580.6 754.644 560.2 754.644 525V517.6C754.644 482.6 744.044 462 719.244 462C694.244 462 683.444 482.6 683.444 517.6V525ZM858.406 592V556.2H786.806V539.2L849.406 450.6H875.806V541.8L895.606 541.6V556.2H875.806V592H858.406ZM802.606 542H858.406C858.606 516 858.606 489.8 860.006 464.6H856.606L802.606 540.4V542Z" fill="#FF9330"/>
<path d="M190 243L100 174V0H243.5V74L300 175.5L415.5 209.5L486.5 272.5L440 361L348.5 381L360.5 301.5V361L428.5 345.5L440 277.15L384 256.5L282.5 272.5L190 243Z" fill="#131313"/>
</svg>
