<svg width="397" height="213" viewBox="0 0 397 213" fill="none" xmlns="http://www.w3.org/2000/svg">
<path d="M397 20.5L233.5 30.5L73.5 0L0 55V138L73.5 201.5L165.5 183L322 212.5L397 165V20.5Z" fill="black"/>
<path d="M191.15 90.5L181.2 79.45H178.8V90.5H174.45V65.15H178.8V75.9H181.05L190.5 65.15H195.6L184.4 77.55L196.65 90.5H191.15ZM204.335 100.85C203.185 100.85 201.535 100.8 199.785 100.65V97.2C201.335 97.3 202.985 97.35 203.985 97.35C206.835 97.3 207.685 96.7 208.585 94.95C209.785 92.6 209.585 91.95 209.235 91L198.685 65.15H203.435C206.185 72.4 208.935 79.5 211.685 87.45H212.385C214.935 79.5 217.435 72.4 219.985 65.15H224.485L214.485 91.9C211.835 99 210.085 100.8 204.335 100.85ZM229.04 90.5V65.15H251.34V90.5H247.14V68.7H233.34V90.5H229.04ZM257.311 90.5V65.15H261.661C261.661 71.8 261.461 80.6 260.911 87.35H261.911C264.911 80.7 269.811 71.9 273.511 65.15H280.361V90.5H276.061C276.061 83.85 276.211 75.05 276.761 68.3H275.761C272.611 75.1 267.711 83.85 264.111 90.5H257.311ZM293.465 90.5V68.7H284.115V65.15H307.065V68.7H297.715V90.5H293.465ZM310.827 90.5V65.15H315.177V74.4H322.927C328.827 74.4 332.127 77.3 332.127 82.45C332.127 87.65 328.827 90.5 322.927 90.5H310.827ZM315.177 87H322.527C326.027 87 327.877 85.45 327.877 82.45C327.877 79.5 326.027 77.9 322.527 77.9H315.177V87ZM187 154.25C178.45 154.25 173.75 147.75 173.8 136.15C173.9 123.85 178.7 118.2 188.75 118.2C191.8 118.2 194.1 118.2 197.2 117.85V121.5C194 122 191.1 121.9 189 122C181.65 122.25 177.7 124.4 177.45 138.1L178.05 138.25C179.55 132.3 182.95 129.75 188.05 129.75C195.1 129.75 199.65 134.6 199.65 141.75C199.65 149.25 194.55 154.25 187 154.25ZM179.4 142.3C179.4 147.5 182.35 150.75 187.05 150.75C192.2 150.75 195.45 147.3 195.45 141.9C195.45 136.6 192.4 133.3 187.6 133.3C182.55 133.3 179.4 136.75 179.4 142.3ZM204.528 153.5V128.15H208.878C208.878 134.8 208.678 143.6 208.128 150.35H209.128C212.128 143.7 217.028 134.9 220.728 128.15H227.578V153.5H223.278C223.278 146.85 223.428 138.05 223.978 131.3H222.978C219.828 138.1 214.928 146.85 211.328 153.5H204.528ZM231.982 153.5V150H233.182C235.782 150 237.232 148.75 238.032 143.4C238.932 137.3 238.982 133.4 239.232 128.15H257.432V153.5H253.132V131.65H243.132C242.982 135.15 242.682 139 242.182 143.25C241.232 151.4 238.532 153.5 233.732 153.5H231.982ZM275.366 154.3C267.716 154.3 262.566 148.9 262.566 140.85V140.4C262.566 132.65 267.566 127.4 274.966 127.4C282.716 127.4 287.216 132.8 287.016 141.95H266.816C267.216 147.75 270.566 150.8 275.266 150.8C279.416 150.8 282.466 148.75 283.116 145.35H287.216C286.466 150.7 281.716 154.25 275.366 154.3ZM266.916 138.55H282.616C282.366 133.7 279.516 130.85 275.016 130.85C270.566 130.85 267.566 133.7 266.916 138.55ZM298.202 153.5V131.7H288.852V128.15H311.802V131.7H302.452V153.5H298.202Z" fill="#E4E4E4"/>
<circle cx="84" cy="103" r="56.5" fill="#FF9330"/>
<path d="M95.5 85.0156L90.2682 78.3705L73.4806 85.0156V100.754L90.2682 105.65L99.0117 121.389L80.5 133L73.4806 124" stroke="black" stroke-width="6"/>
<path d="M56.6943 114.044L64.7383 105.65L68.2358 100.754L56.6943 90.2617L59.4922 99.355L49 104.251L54.9456 105.65L56.6943 114.044Z" fill="black"/>
<path d="M56.6943 114.044L64.7383 105.65L68.2358 100.754L56.6943 90.2617L59.4922 99.355L49 104.251L54.9456 105.65L56.6943 114.044Z" fill="black"/>
<path d="M108.806 118.241L100.762 109.847L97.2642 104.951L108.806 94.4585L106.008 103.552L116.5 108.448L110.554 109.847L108.806 118.241Z" fill="black"/>
<path d="M108.806 118.241L100.762 109.847L97.2642 104.951L108.806 94.4585L106.008 103.552L116.5 108.448L110.554 109.847L108.806 118.241Z" fill="black"/>
</svg>
