<svg width="139" height="97" viewBox="0 0 139 97" fill="none" xmlns="http://www.w3.org/2000/svg">
<path d="M0.5 32.5L22.5 4L82.5 0L139 40.5L127 82L86 86L22.5 97L0.5 86V32.5Z" fill="black"/>
<path d="M38.8622 57.64C32.5022 57.64 28.5022 54.48 28.5022 49.52C28.5022 45.88 30.6622 43.08 34.5022 42.04V41.48C31.3022 40.52 29.5022 38.2 29.5022 35.2C29.5022 30.84 33.1022 28.12 38.8622 28.12C44.5822 28.12 48.1822 30.84 48.1822 35.2C48.1822 38.2 46.4222 40.56 43.2222 41.48V42.04C47.0622 43.08 49.1822 45.88 49.1822 49.52C49.1822 54.52 45.1822 57.64 38.8622 57.64ZM32.1022 48.92C32.1022 52.44 34.7022 54.64 38.8622 54.64C42.9822 54.64 45.6222 52.44 45.6222 48.92C45.6222 45.4 42.9822 43.2 38.8622 43.2C34.7022 43.2 32.1022 45.4 32.1022 48.92ZM32.9422 35.76C32.9422 38.68 35.2222 40.56 38.8222 40.56C42.4622 40.56 44.7422 38.68 44.7422 35.76C44.7422 32.8 42.4622 31 38.8622 31C35.2222 31 32.9422 32.8 32.9422 35.76Z" fill="white"/>
<circle cx="82" cy="44" r="23" fill="#FF9330"/>
<path d="M86.6837 36.6788L84.554 33.9738L77.7201 36.6788V43.0856L84.554 45.0788L88.1133 51.4856L80.5775 56.2123L77.7201 52.5486" stroke="white" stroke-width="2.44248"/>
<path d="M70.8822 48.4958L74.1568 45.0788L75.5805 43.0856L70.8822 38.8145L72.0212 42.5161L67.75 44.5093L70.1703 45.0788L70.8822 48.4958Z" fill="white"/>
<path d="M70.8822 48.4958L74.1568 45.0788L75.5805 43.0856L70.8822 38.8145L72.0212 42.5161L67.75 44.5093L70.1703 45.0788L70.8822 48.4958Z" fill="white"/>
<path d="M92.0983 50.2043L88.8237 46.7873L87.4 44.7941L92.0983 40.5229L90.9593 44.2246L95.2305 46.2178L92.8101 46.7873L92.0983 50.2043Z" fill="white"/>
<path d="M92.0983 50.2043L88.8237 46.7873L87.4 44.7941L92.0983 40.5229L90.9593 44.2246L95.2305 46.2178L92.8101 46.7873L92.0983 50.2043Z" fill="white"/>
</svg>
