<svg width="142" height="108" viewBox="0 0 142 108" fill="none" xmlns="http://www.w3.org/2000/svg">
<path d="M0 40.5L25.5 0H85.5L142 40.5L130 82L85.5 108L25.5 97L0 92V40.5Z" fill="black"/>
<path d="M44.6909 66.6C38.2509 66.6 33.9709 62.2 34.0509 52C34.1309 42.2 38.4109 37.12 46.2509 37.12C48.2509 37.12 50.7309 37.36 52.7709 37.96V41.04C49.8909 40.32 47.8509 40.2 46.3309 40.2C39.8909 40.36 37.0509 44.6 37.0509 52.76L37.5709 52.84C39.0109 49.6 41.8909 47.92 45.6509 47.92C50.8909 47.92 54.4909 51.6 54.4909 57.08C54.4909 62.76 50.5309 66.6 44.6909 66.6ZM38.2909 57.4C38.2909 61.36 40.8109 63.76 44.6909 63.76C48.5709 63.76 51.1309 61.24 51.1309 57.2C51.1309 53.28 48.6509 50.84 44.8509 50.84C40.8509 50.84 38.2909 53.4 38.2909 57.4Z" fill="white"/>
<circle cx="87" cy="53" r="23" fill="#FF9330"/>
<path d="M91.6837 45.6789L89.554 42.9738L82.7201 45.6789V52.0857L89.554 54.0789L93.1133 60.4856L85.5775 65.2124L82.7201 61.5487" stroke="white" stroke-width="2.44248"/>
<path d="M75.8822 57.4958L79.1568 54.0788L80.5805 52.0856L75.8822 47.8145L77.0212 51.5161L72.75 53.5093L75.1703 54.0788L75.8822 57.4958Z" fill="white"/>
<path d="M75.8822 57.4958L79.1568 54.0788L80.5805 52.0856L75.8822 47.8145L77.0212 51.5161L72.75 53.5093L75.1703 54.0788L75.8822 57.4958Z" fill="white"/>
<path d="M97.0983 59.2043L93.8237 55.7873L92.4 53.7941L97.0983 49.5229L95.9593 53.2246L100.23 55.2178L97.8101 55.7873L97.0983 59.2043Z" fill="white"/>
<path d="M97.0983 59.2043L93.8237 55.7873L92.4 53.7941L97.0983 49.5229L95.9593 53.2246L100.23 55.2178L97.8101 55.7873L97.0983 59.2043Z" fill="white"/>
</svg>
