<svg width="1440" height="1024" viewBox="0 0 1440 1024" fill="none" xmlns="http://www.w3.org/2000/svg">
<rect width="1440" height="1024" fill="#E4E4E4"/>
<path d="M429 329.288L409.5 209.131L464 140.541L716 109L1031.5 160.567L985.5 447.442L1057 745.831L985.5 834.948L716 875L498.5 854.974L384 568.099L429 329.288Z" fill="#FF9330"/>
<circle cx="784.289" cy="216" r="45" fill="white"/>
<ellipse cx="783.926" cy="216.363" rx="7.62097" ry="30.121" fill="black"/>
<path d="M614.99 225.5L652.002 209L696.99 223.5" stroke="black" stroke-width="8"/>
<path d="M566.565 484H560.35L576.135 469.81L565.96 456.115H571.46L580.205 467.94H582.57L584.44 456.115H589.17L587.3 467.94H589.28L601.82 456.115H607.705L593.13 469.81L604.35 484H598.575L589.17 471.845H586.695L584.77 484H580.04L581.91 471.845H579.82L566.565 484ZM604.807 491.7L606.622 480.095L609.867 480.04C615.312 472.45 617.457 463.925 619.162 456.06L638.522 456.115L634.727 480.095H638.522L636.652 491.7H631.922L633.132 484H610.747L609.537 491.7H604.807ZM615.257 480.095H629.942L633.132 460.02L622.902 460.075C620.867 469.26 618.447 475.09 615.422 479.6L615.257 480.095ZM655.203 484.88C647.723 484.88 642.993 480.205 642.993 473.11V472.78C642.993 463.54 649.263 455.29 658.998 455.29C667.633 455.29 671.758 461.34 669.943 471.295H647.668C647.668 471.735 647.613 472.175 647.613 472.615C647.613 478.225 650.528 481.03 655.258 481.03C659.878 481.03 663.728 478.665 665.048 475.035H669.558C667.798 481.03 662.078 484.825 655.203 484.88ZM648.383 467.555H665.708C666.258 462.11 663.783 459.085 658.888 459.085C653.443 459.085 649.868 462.935 648.383 467.555ZM673.797 484L678.197 456.115H686.557C688.317 464.31 689.472 471.13 690.847 480.425H692.002C696.237 470.855 699.537 464.035 703.937 456.115H712.187L707.787 484H703.057C704.212 476.355 705.532 468.82 707.347 459.69H706.247C702.122 467.83 698.382 475.75 694.202 484H687.437C686.007 475.475 684.687 467.61 683.037 459.69H681.827C680.782 469.15 679.627 476.63 678.417 484H673.797ZM727.508 484L731.908 456.115H744.503C749.838 456.115 752.698 458.48 752.698 462.495C752.643 466.18 750.168 468.38 746.153 469.15L746.043 469.92C749.948 470.525 751.928 472.45 751.928 475.97C751.928 480.48 748.628 484 742.358 484H727.508ZM732.843 480.315H740.873C744.998 480.315 747.253 478.445 747.253 475.255C747.253 472.615 745.603 471.46 742.413 471.46H734.273L732.843 480.315ZM734.768 468.215H741.698C745.658 468.215 747.913 466.125 747.913 463.21C747.968 460.9 746.428 459.8 743.183 459.8H736.088L734.768 468.215ZM777.472 466.125C778.242 461.285 777.142 459.525 771.587 459.47C768.727 459.47 765.427 459.91 761.027 460.79L761.522 456.665C765.207 455.84 768.122 455.51 771.697 455.51C780.112 455.51 783.357 458.37 782.092 466.29L779.287 484H774.612L775.217 480.095H774.667C772.467 483.065 769.442 484.77 765.042 484.77C759.927 484.77 756.407 482.35 756.517 477.18C756.572 470.085 762.072 466.95 770.157 466.455C772.632 466.345 775.437 466.235 777.472 466.18V466.125ZM761.247 476.74C761.192 479.6 763.117 481.03 766.197 481.03C770.597 481.03 774.502 478.17 776.207 474.1L776.867 469.81C775.162 469.865 773.017 469.975 770.597 470.195C765.537 470.58 761.302 472.56 761.247 476.74ZM798.881 484.825C791.236 484.825 786.671 479.985 786.671 472.505V472.23C786.671 463.595 792.941 455.29 803.116 455.29C810.211 455.29 814.721 459.69 814.556 465.575H809.991C809.936 461.67 807.186 459.195 802.786 459.195C795.581 459.195 791.456 465.465 791.456 472.285C791.456 477.62 794.096 480.92 799.156 480.92C803.831 480.92 807.626 478.17 808.891 473.88H813.456C811.751 480.535 805.921 484.825 798.881 484.825ZM563.045 544L567.445 516.115H580.04C585.375 516.115 588.235 518.48 588.235 522.495C588.18 526.18 585.705 528.38 581.69 529.15L581.58 529.92C585.485 530.525 587.465 532.45 587.465 535.97C587.465 540.48 584.165 544 577.895 544H563.045ZM568.38 540.315H576.41C580.535 540.315 582.79 538.445 582.79 535.255C582.79 532.615 581.14 531.46 577.95 531.46H569.81L568.38 540.315ZM570.305 528.215H577.235C581.195 528.215 583.45 526.125 583.45 523.21C583.505 520.9 581.965 519.8 578.72 519.8H571.625L570.305 528.215ZM604.993 544L609.393 516.115H633.923L629.523 544H624.903L628.643 520.02H613.518L609.723 544H604.993ZM649.402 544.88C641.922 544.88 637.192 540.205 637.192 533.11V532.78C637.192 523.54 643.462 515.29 653.197 515.29C661.832 515.29 665.957 521.34 664.142 531.295H641.867C641.867 531.735 641.812 532.175 641.812 532.615C641.812 538.225 644.727 541.03 649.457 541.03C654.077 541.03 657.927 538.665 659.247 535.035H663.757C661.997 541.03 656.277 544.825 649.402 544.88ZM642.582 527.555H659.907C660.457 522.11 657.982 519.085 653.087 519.085C647.642 519.085 644.067 522.935 642.582 527.555ZM666.291 555L672.396 516.115H677.181L676.411 520.79H677.016C678.336 517.71 681.691 515.455 686.586 515.455C693.241 515.455 697.256 520.02 697.256 527.06V527.335C697.256 535.97 691.591 544.715 682.461 544.715C677.291 544.715 674.761 542.24 674.101 539.765H673.441L671.021 555H666.291ZM674.761 532.67C674.761 537.785 677.071 540.865 681.691 540.865C688.786 540.865 692.526 533.935 692.526 527.5C692.526 522.33 690.051 519.25 685.376 519.25C678.391 519.25 674.761 526.015 674.761 532.67ZM713.801 544.88C706.321 544.88 701.591 540.205 701.591 533.11V532.78C701.591 523.54 707.861 515.29 717.596 515.29C726.231 515.29 730.356 521.34 728.541 531.295H706.266C706.266 531.735 706.211 532.175 706.211 532.615C706.211 538.225 709.126 541.03 713.856 541.03C718.476 541.03 722.326 538.665 723.646 535.035H728.156C726.396 541.03 720.676 544.825 713.801 544.88ZM706.981 527.555H724.306C724.856 522.11 722.381 519.085 717.486 519.085C712.041 519.085 708.466 522.935 706.981 527.555ZM732.396 544L736.796 516.115H754.726L754.121 520.02H740.976L737.181 544H732.396ZM776.022 526.125C776.792 521.285 775.692 519.525 770.137 519.47C767.277 519.47 763.977 519.91 759.577 520.79L760.072 516.665C763.757 515.84 766.672 515.51 770.247 515.51C778.662 515.51 781.907 518.37 780.642 526.29L777.837 544H773.162L773.767 540.095H773.217C771.017 543.065 767.992 544.77 763.592 544.77C758.477 544.77 754.957 542.35 755.067 537.18C755.122 530.085 760.622 526.95 768.707 526.455C771.182 526.345 773.987 526.235 776.022 526.18V526.125ZM759.797 536.74C759.742 539.6 761.667 541.03 764.747 541.03C769.147 541.03 773.052 538.17 774.757 534.1L775.417 529.81C773.712 529.865 771.567 529.975 769.147 530.195C764.087 530.58 759.852 532.56 759.797 536.74ZM782.361 555L788.466 516.115H793.251L792.481 520.79H793.086C794.406 517.71 797.761 515.455 802.656 515.455C809.311 515.455 813.326 520.02 813.326 527.06V527.335C813.326 535.97 807.661 544.715 798.531 544.715C793.361 544.715 790.831 542.24 790.171 539.765H789.511L787.091 555H782.361ZM790.831 532.67C790.831 537.785 793.141 540.865 797.761 540.865C804.856 540.865 808.596 533.935 808.596 527.5C808.596 522.33 806.121 519.25 801.446 519.25C794.461 519.25 790.831 526.015 790.831 532.67ZM829.871 544.88C822.391 544.88 817.661 540.205 817.661 533.11V532.78C817.661 523.54 823.931 515.29 833.666 515.29C842.301 515.29 846.426 521.34 844.611 531.295H822.336C822.336 531.735 822.281 532.175 822.281 532.615C822.281 538.225 825.196 541.03 829.926 541.03C834.546 541.03 838.396 538.665 839.716 535.035H844.226C842.466 541.03 836.746 544.825 829.871 544.88ZM823.051 527.555H840.376C840.926 522.11 838.451 519.085 833.556 519.085C828.111 519.085 824.536 522.935 823.051 527.555ZM852.37 532.395C853.69 523.155 855.01 514.08 856.275 505.06L861.115 505.17C859.52 514.355 857.98 523.485 856.44 532.45L852.37 532.395ZM849.95 541.635C850.005 539.38 851.38 538.115 853.525 538.115C855.45 538.115 856.495 539.215 856.44 540.92C856.385 543.175 855.01 544.44 852.865 544.44C850.94 544.44 849.895 543.34 849.95 541.635Z" fill="black"/>
<path d="M940.5 208.5L981.5 242.5" stroke="black" stroke-width="8"/>
<path d="M978.5 199L959 242.5" stroke="black" stroke-width="8"/>
</svg>
