<svg width="1440" height="1024" viewBox="0 0 1440 1024" fill="none" xmlns="http://www.w3.org/2000/svg">
<rect width="1440" height="1024" fill="#E4E4E4"/>
<path d="M429 329.288L409.5 209.131L464 140.541L716 109L1031.5 160.567L985.5 447.442L1057 745.831L985.5 834.948L716 875L498.5 854.974L384 568.099L429 329.288Z" fill="#FF9330"/>
<path d="M919 639.5L755.5 649.5L595.5 619L522 674V757L595.5 820.5L687.5 802L844 831.5L919 784V639.5Z" fill="black"/>
<path d="M713.15 709.5L703.2 698.45H700.8V709.5H696.45V684.15H700.8V694.9H703.05L712.5 684.15H717.6L706.4 696.55L718.65 709.5H713.15ZM726.335 719.85C725.185 719.85 723.535 719.8 721.785 719.65V716.2C723.335 716.3 724.985 716.35 725.985 716.35C728.835 716.3 729.685 715.7 730.585 713.95C731.785 711.6 731.585 710.95 731.235 710L720.685 684.15H725.435C728.185 691.4 730.935 698.5 733.685 706.45H734.385C736.935 698.5 739.435 691.4 741.985 684.15H746.485L736.485 710.9C733.835 718 732.085 719.8 726.335 719.85ZM751.04 709.5V684.15H773.34V709.5H769.14V687.7H755.34V709.5H751.04ZM779.311 709.5V684.15H783.661C783.661 690.8 783.461 699.6 782.911 706.35H783.911C786.911 699.7 791.811 690.9 795.511 684.15H802.361V709.5H798.061C798.061 702.85 798.211 694.05 798.761 687.3H797.761C794.611 694.1 789.711 702.85 786.111 709.5H779.311ZM815.465 709.5V687.7H806.115V684.15H829.065V687.7H819.715V709.5H815.465ZM832.827 709.5V684.15H837.177V693.4H844.927C850.827 693.4 854.127 696.3 854.127 701.45C854.127 706.65 850.827 709.5 844.927 709.5H832.827ZM837.177 706H844.527C848.027 706 849.877 704.45 849.877 701.45C849.877 698.5 848.027 696.9 844.527 696.9H837.177V706ZM709 773.25C700.45 773.25 695.75 766.75 695.8 755.15C695.9 742.85 700.7 737.2 710.75 737.2C713.8 737.2 716.1 737.2 719.2 736.85V740.5C716 741 713.1 740.9 711 741C703.65 741.25 699.7 743.4 699.45 757.1L700.05 757.25C701.55 751.3 704.95 748.75 710.05 748.75C717.1 748.75 721.65 753.6 721.65 760.75C721.65 768.25 716.55 773.25 709 773.25ZM701.4 761.3C701.4 766.5 704.35 769.75 709.05 769.75C714.2 769.75 717.45 766.3 717.45 760.9C717.45 755.6 714.4 752.3 709.6 752.3C704.55 752.3 701.4 755.75 701.4 761.3ZM726.528 772.5V747.15H730.878C730.878 753.8 730.678 762.6 730.128 769.35H731.128C734.128 762.7 739.028 753.9 742.728 747.15H749.578V772.5H745.278C745.278 765.85 745.428 757.05 745.978 750.3H744.978C741.828 757.1 736.928 765.85 733.328 772.5H726.528ZM753.982 772.5V769H755.182C757.782 769 759.232 767.75 760.032 762.4C760.932 756.3 760.982 752.4 761.232 747.15H779.432V772.5H775.132V750.65H765.132C764.982 754.15 764.682 758 764.182 762.25C763.232 770.4 760.532 772.5 755.732 772.5H753.982ZM797.366 773.3C789.716 773.3 784.566 767.9 784.566 759.85V759.4C784.566 751.65 789.566 746.4 796.966 746.4C804.716 746.4 809.216 751.8 809.016 760.95H788.816C789.216 766.75 792.566 769.8 797.266 769.8C801.416 769.8 804.466 767.75 805.116 764.35H809.216C808.466 769.7 803.716 773.25 797.366 773.3ZM788.916 757.55H804.616C804.366 752.7 801.516 749.85 797.016 749.85C792.566 749.85 789.566 752.7 788.916 757.55ZM820.202 772.5V750.7H810.852V747.15H833.802V750.7H824.452V772.5H820.202Z" fill="#E4E4E4"/>
<circle cx="606" cy="722" r="56.5" fill="#FF9330"/>
<path d="M617.5 704.016L612.268 697.371L595.481 704.016V719.754L612.268 724.65L621.012 740.389L602.5 752L595.481 743" stroke="black" stroke-width="6"/>
<path d="M578.694 733.044L586.738 724.65L590.236 719.754L578.694 709.262L581.492 718.355L571 723.251L576.946 724.65L578.694 733.044Z" fill="black"/>
<path d="M578.694 733.044L586.738 724.65L590.236 719.754L578.694 709.262L581.492 718.355L571 723.251L576.946 724.65L578.694 733.044Z" fill="black"/>
<path d="M630.806 737.241L622.762 728.847L619.264 723.951L630.806 713.458L628.008 722.552L638.5 727.448L632.554 728.847L630.806 737.241Z" fill="black"/>
<path d="M630.806 737.241L622.762 728.847L619.264 723.951L630.806 713.458L628.008 722.552L638.5 727.448L632.554 728.847L630.806 737.241Z" fill="black"/>
<path d="M919 639.5L755.5 649.5L595.5 619L522 674V757L595.5 820.5L687.5 802L844 831.5L919 784V639.5Z" fill="black"/>
<path d="M713.15 709.5L703.2 698.45H700.8V709.5H696.45V684.15H700.8V694.9H703.05L712.5 684.15H717.6L706.4 696.55L718.65 709.5H713.15ZM726.335 719.85C725.185 719.85 723.535 719.8 721.785 719.65V716.2C723.335 716.3 724.985 716.35 725.985 716.35C728.835 716.3 729.685 715.7 730.585 713.95C731.785 711.6 731.585 710.95 731.235 710L720.685 684.15H725.435C728.185 691.4 730.935 698.5 733.685 706.45H734.385C736.935 698.5 739.435 691.4 741.985 684.15H746.485L736.485 710.9C733.835 718 732.085 719.8 726.335 719.85ZM751.04 709.5V684.15H773.34V709.5H769.14V687.7H755.34V709.5H751.04ZM779.311 709.5V684.15H783.661C783.661 690.8 783.461 699.6 782.911 706.35H783.911C786.911 699.7 791.811 690.9 795.511 684.15H802.361V709.5H798.061C798.061 702.85 798.211 694.05 798.761 687.3H797.761C794.611 694.1 789.711 702.85 786.111 709.5H779.311ZM815.465 709.5V687.7H806.115V684.15H829.065V687.7H819.715V709.5H815.465ZM832.827 709.5V684.15H837.177V693.4H844.927C850.827 693.4 854.127 696.3 854.127 701.45C854.127 706.65 850.827 709.5 844.927 709.5H832.827ZM837.177 706H844.527C848.027 706 849.877 704.45 849.877 701.45C849.877 698.5 848.027 696.9 844.527 696.9H837.177V706ZM709 773.25C700.45 773.25 695.75 766.75 695.8 755.15C695.9 742.85 700.7 737.2 710.75 737.2C713.8 737.2 716.1 737.2 719.2 736.85V740.5C716 741 713.1 740.9 711 741C703.65 741.25 699.7 743.4 699.45 757.1L700.05 757.25C701.55 751.3 704.95 748.75 710.05 748.75C717.1 748.75 721.65 753.6 721.65 760.75C721.65 768.25 716.55 773.25 709 773.25ZM701.4 761.3C701.4 766.5 704.35 769.75 709.05 769.75C714.2 769.75 717.45 766.3 717.45 760.9C717.45 755.6 714.4 752.3 709.6 752.3C704.55 752.3 701.4 755.75 701.4 761.3ZM726.528 772.5V747.15H730.878C730.878 753.8 730.678 762.6 730.128 769.35H731.128C734.128 762.7 739.028 753.9 742.728 747.15H749.578V772.5H745.278C745.278 765.85 745.428 757.05 745.978 750.3H744.978C741.828 757.1 736.928 765.85 733.328 772.5H726.528ZM753.982 772.5V769H755.182C757.782 769 759.232 767.75 760.032 762.4C760.932 756.3 760.982 752.4 761.232 747.15H779.432V772.5H775.132V750.65H765.132C764.982 754.15 764.682 758 764.182 762.25C763.232 770.4 760.532 772.5 755.732 772.5H753.982ZM797.366 773.3C789.716 773.3 784.566 767.9 784.566 759.85V759.4C784.566 751.65 789.566 746.4 796.966 746.4C804.716 746.4 809.216 751.8 809.016 760.95H788.816C789.216 766.75 792.566 769.8 797.266 769.8C801.416 769.8 804.466 767.75 805.116 764.35H809.216C808.466 769.7 803.716 773.25 797.366 773.3ZM788.916 757.55H804.616C804.366 752.7 801.516 749.85 797.016 749.85C792.566 749.85 789.566 752.7 788.916 757.55ZM820.202 772.5V750.7H810.852V747.15H833.802V750.7H824.452V772.5H820.202Z" fill="#E4E4E4"/>
<circle cx="606" cy="722" r="56.5" fill="#FF9330"/>
<path d="M617.5 704.016L612.268 697.371L595.481 704.016V719.754L612.268 724.65L621.012 740.389L602.5 752L595.481 743" stroke="black" stroke-width="6"/>
<path d="M578.694 733.044L586.738 724.65L590.236 719.754L578.694 709.262L581.492 718.355L571 723.251L576.946 724.65L578.694 733.044Z" fill="black"/>
<path d="M578.694 733.044L586.738 724.65L590.236 719.754L578.694 709.262L581.492 718.355L571 723.251L576.946 724.65L578.694 733.044Z" fill="black"/>
<path d="M630.806 737.241L622.762 728.847L619.264 723.951L630.806 713.458L628.008 722.552L638.5 727.448L632.554 728.847L630.806 737.241Z" fill="black"/>
<path d="M630.806 737.241L622.762 728.847L619.264 723.951L630.806 713.458L628.008 722.552L638.5 727.448L632.554 728.847L630.806 737.241Z" fill="black"/>
<path d="M567.57 362L569.97 346.79H572.58C571.92 350.87 570.99 356.15 570.03 360.11H570.63C573.06 356.03 576.81 350.78 579.66 346.79H583.8L581.4 362H578.82C579.45 357.92 580.38 352.64 581.34 348.68H580.74C578.22 352.82 574.47 358.07 571.65 362H567.57ZM584.972 362L587.372 346.79H591.932C592.892 351.26 593.522 354.98 594.272 360.05H594.902C597.212 354.83 599.012 351.11 601.412 346.79H605.912L603.512 362H600.932C601.562 357.83 602.282 353.72 603.272 348.74H602.672C600.422 353.18 598.382 357.5 596.102 362H592.412C591.632 357.35 590.912 353.06 590.012 348.74H589.352C588.782 353.9 588.152 357.98 587.492 362H584.972ZM606.251 361.67C607.601 359.36 607.421 355.22 611.351 354.77L611.471 354.53C609.671 354.29 608.411 353.15 608.441 351.05C608.471 348.17 610.991 346.4 614.261 346.4H621.821L619.361 362H616.781L617.801 355.55H613.601C610.271 355.55 610.271 360.44 608.981 362.03L606.221 362L606.251 361.67ZM610.991 351.29C610.961 352.73 612.011 353.57 613.931 353.57H618.101L618.911 348.53H614.681C612.641 348.53 611.021 349.52 610.991 351.29Z" fill="white"/>
<path d="M567.57 447L569.97 431.79H572.55L571.59 437.97H579.78L580.77 431.79H583.29L580.89 447H578.37L579.45 440.1H571.26L570.15 447H567.57ZM591.734 447.45C587.564 447.45 585.134 444.78 585.134 440.7V440.55C585.134 435.51 588.734 431.34 594.014 431.34C598.214 431.34 600.734 433.95 600.734 437.88V438.03C600.734 442.83 597.194 447.45 591.734 447.45ZM587.714 440.67C587.714 443.58 589.124 445.32 591.854 445.32C595.904 445.32 598.154 441.69 598.154 438C598.154 435.15 596.684 433.47 593.894 433.47C589.874 433.47 587.714 436.95 587.714 440.67ZM602.492 447L604.892 431.79H609.452C610.412 436.26 611.042 439.98 611.792 445.05H612.422C614.732 439.83 616.532 436.11 618.932 431.79H623.432L621.032 447H618.452C619.082 442.83 619.802 438.72 620.792 433.74H620.192C617.942 438.18 615.902 442.5 613.622 447H609.932C609.152 442.35 608.432 438.06 607.532 433.74H606.872C606.302 438.9 605.672 442.98 605.012 447H602.492ZM631.871 447.48C627.791 447.48 625.211 444.93 625.211 441.06V440.88C625.211 435.84 628.631 431.34 633.941 431.34C638.651 431.34 640.901 434.64 639.911 440.07H627.761C627.761 440.31 627.731 440.55 627.731 440.79C627.731 443.85 629.321 445.38 631.901 445.38C634.421 445.38 636.521 444.09 637.241 442.11H639.701C638.741 445.38 635.621 447.45 631.871 447.48ZM628.151 438.03H637.601C637.901 435.06 636.551 433.41 633.881 433.41C630.911 433.41 628.961 435.51 628.151 438.03ZM641.083 453L644.413 431.79H647.023L646.603 434.34H646.933C647.653 432.66 649.483 431.43 652.153 431.43C655.783 431.43 657.973 433.92 657.973 437.76V437.91C657.973 442.62 654.883 447.39 649.903 447.39C647.083 447.39 645.703 446.04 645.343 444.69H644.983L643.663 453H641.083ZM645.703 440.82C645.703 443.61 646.963 445.29 649.483 445.29C653.353 445.29 655.393 441.51 655.393 438C655.393 435.18 654.043 433.5 651.493 433.5C647.683 433.5 645.703 437.19 645.703 440.82Z" fill="white"/>
<path d="M567.57 532L569.97 516.79H583.35L580.95 532H578.43L580.47 518.92H572.22L570.15 532H567.57ZM591.793 532.45C587.623 532.45 585.193 529.78 585.193 525.7V525.55C585.193 520.51 588.793 516.34 594.073 516.34C598.273 516.34 600.793 518.95 600.793 522.88V523.03C600.793 527.83 597.253 532.45 591.793 532.45ZM587.773 525.67C587.773 528.58 589.183 530.32 591.913 530.32C595.963 530.32 598.213 526.69 598.213 523C598.213 520.15 596.743 518.47 593.953 518.47C589.933 518.47 587.773 521.95 587.773 525.67ZM608.075 526.3C604.325 526.33 602.945 524.8 603.455 521.56L604.205 516.79H606.785L606.155 520.96C605.735 523.54 606.245 524.2 608.705 524.17C609.995 524.17 611.315 524.02 612.605 523.75L613.685 516.79H616.295L613.895 532H611.285L612.275 525.73C610.865 526.06 609.395 526.27 608.075 526.3ZM621.753 532L623.823 518.92H618.183L618.543 516.79H632.313L631.983 518.92H626.373L624.303 532H621.753ZM643.72 522.25C644.14 519.61 643.54 518.65 640.51 518.62C638.95 518.62 637.15 518.86 634.75 519.34L635.02 517.09C637.03 516.64 638.62 516.46 640.57 516.46C645.16 516.46 646.93 518.02 646.24 522.34L644.71 532H642.16L642.49 529.87H642.19C640.99 531.49 639.34 532.42 636.94 532.42C634.15 532.42 632.23 531.1 632.29 528.28C632.32 524.41 635.32 522.7 639.73 522.43C641.08 522.37 642.61 522.31 643.72 522.28V522.25ZM634.87 528.04C634.84 529.6 635.89 530.38 637.57 530.38C639.97 530.38 642.1 528.82 643.03 526.6L643.39 524.26C642.46 524.29 641.29 524.35 639.97 524.47C637.21 524.68 634.9 525.76 634.87 528.04Z" fill="white"/>
<line x1="567" y1="373.5" x2="874" y2="373.5" stroke="white" stroke-width="5"/>
<line x1="567" y1="458.5" x2="874" y2="458.5" stroke="white" stroke-width="5"/>
<line x1="567" y1="543.5" x2="874" y2="543.5" stroke="white" stroke-width="5"/>
<circle cx="658" cy="216" r="45" fill="white"/>
<ellipse cx="657.637" cy="216.363" rx="7.62097" ry="30.121" fill="black"/>
<circle cx="784.289" cy="216" r="45" fill="white"/>
<ellipse cx="783.926" cy="216.363" rx="7.62097" ry="30.121" fill="black"/>
<path d="M940.5 208.5L981.5 242.5" stroke="black" stroke-width="8"/>
<path d="M978.5 199L959 242.5" stroke="black" stroke-width="8"/>
</svg>
