<svg width="143" height="86" viewBox="0 0 143 86" fill="none" xmlns="http://www.w3.org/2000/svg">
<path d="M0 13.5L26.5 4L86.5 0L143 40.5L131 82L90 86L48 77H6L0 13.5Z" fill="black"/>
<path d="M24.36 57V36.04L18.12 36.08V33.48C22.88 33.48 24.48 32.92 24.64 28.72H27.84V57H24.36ZM42.7222 57.6C36.2822 57.6 32.0022 53.2 32.0822 43C32.1622 33.2 36.4422 28.12 44.2822 28.12C46.2822 28.12 48.7622 28.36 50.8022 28.96V32.04C47.9222 31.32 45.8822 31.2 44.3622 31.2C37.9222 31.36 35.0822 35.6 35.0822 43.76L35.6022 43.84C37.0422 40.6 39.9222 38.92 43.6822 38.92C48.9222 38.92 52.5222 42.6 52.5222 48.08C52.5222 53.76 48.5622 57.6 42.7222 57.6ZM36.3222 48.4C36.3222 52.36 38.8422 54.76 42.7222 54.76C46.6022 54.76 49.1622 52.24 49.1622 48.2C49.1622 44.28 46.6822 41.84 42.8822 41.84C38.8822 41.84 36.3222 44.4 36.3222 48.4Z" fill="white"/>
<circle cx="86" cy="44" r="23" fill="#FF9330"/>
<path d="M90.6837 36.6789L88.554 33.9738L81.7201 36.6789V43.0857L88.554 45.0789L92.1133 51.4856L84.5775 56.2124L81.7201 52.5487" stroke="white" stroke-width="2.44248"/>
<path d="M74.8822 48.4958L78.1568 45.0788L79.5805 43.0856L74.8822 38.8145L76.0212 42.5161L71.75 44.5093L74.1703 45.0788L74.8822 48.4958Z" fill="white"/>
<path d="M74.8822 48.4958L78.1568 45.0788L79.5805 43.0856L74.8822 38.8145L76.0212 42.5161L71.75 44.5093L74.1703 45.0788L74.8822 48.4958Z" fill="white"/>
<path d="M96.0983 50.2043L92.8237 46.7873L91.4 44.7941L96.0983 40.5229L94.9593 44.2246L99.2305 46.2178L96.8101 46.7873L96.0983 50.2043Z" fill="white"/>
<path d="M96.0983 50.2043L92.8237 46.7873L91.4 44.7941L96.0983 40.5229L94.9593 44.2246L99.2305 46.2178L96.8101 46.7873L96.0983 50.2043Z" fill="white"/>
</svg>
