<svg width="1440" height="1024" viewBox="0 0 1440 1024" fill="none" xmlns="http://www.w3.org/2000/svg">
<g clip-path="url(#clip0_312_560)">
<rect width="1440" height="1024" fill="#FF9330"/>
<path d="M412.05 397.825C402.645 397.825 397.475 390.675 397.53 377.915C397.64 364.385 402.92 358.17 413.975 358.17C417.33 358.17 419.86 358.17 423.27 357.785V361.8C419.75 362.35 416.56 362.24 414.25 362.35C406.165 362.625 401.82 364.99 401.545 380.06L402.205 380.225C403.855 373.68 407.595 370.875 413.205 370.875C420.96 370.875 425.965 376.21 425.965 384.075C425.965 392.325 420.355 397.825 412.05 397.825ZM403.69 384.68C403.69 390.4 406.935 393.975 412.105 393.975C417.77 393.975 421.345 390.18 421.345 384.24C421.345 378.41 417.99 374.78 412.71 374.78C407.155 374.78 403.69 378.575 403.69 384.68ZM434.18 408.385C432.915 408.385 431.1 408.33 429.175 408.165V404.37C430.88 404.48 432.695 404.535 433.795 404.535C436.93 404.48 437.865 403.82 438.855 401.895C440.175 399.31 439.955 398.595 439.57 397.55L427.965 369.115H433.19C436.215 377.09 439.24 384.9 442.265 393.645H443.035C445.84 384.9 448.59 377.09 451.395 369.115H456.345L445.345 398.54C442.43 406.35 440.505 408.33 434.18 408.385ZM469.22 397V373.02H458.935V369.115H484.18V373.02H473.895V397H469.22ZM500.068 397.88C491.653 397.88 485.988 391.94 485.988 383.085V382.59C485.988 374.065 491.488 368.29 499.628 368.29C508.153 368.29 513.103 374.23 512.883 384.295H490.663C491.103 390.675 494.788 394.03 499.958 394.03C504.523 394.03 507.878 391.775 508.593 388.035H513.103C512.278 393.92 507.053 397.825 500.068 397.88ZM490.773 380.555H508.043C507.768 375.22 504.633 372.085 499.683 372.085C494.788 372.085 491.488 375.22 490.773 380.555ZM518.772 408V369.115H523.557V373.79H524.107C524.987 370.875 528.067 368.455 533.072 368.455C540.497 368.455 545.502 374.12 545.502 382.48V383.635C545.502 392.05 540.497 397.715 533.072 397.715C528.067 397.715 525.207 395.35 524.107 392.765H523.557V408H518.772ZM523.612 383.03C523.612 389.85 526.692 393.865 532.082 393.865C537.527 393.865 540.772 389.85 540.772 383.03C540.772 376.265 537.527 372.25 532.082 372.25C526.692 372.25 523.612 376.265 523.612 383.03ZM564.911 397.825C555.506 397.825 550.336 390.675 550.391 377.915C550.501 364.385 555.781 358.17 566.836 358.17C570.191 358.17 572.721 358.17 576.131 357.785V361.8C572.611 362.35 569.421 362.24 567.111 362.35C559.026 362.625 554.681 364.99 554.406 380.06L555.066 380.225C556.716 373.68 560.456 370.875 566.066 370.875C573.821 370.875 578.826 376.21 578.826 384.075C578.826 392.325 573.216 397.825 564.911 397.825ZM556.551 384.68C556.551 390.4 559.796 393.975 564.966 393.975C570.631 393.975 574.206 390.18 574.206 384.24C574.206 378.41 570.851 374.78 565.571 374.78C560.016 374.78 556.551 378.575 556.551 384.68ZM584.192 408V369.115H588.977V373.79H589.527C590.407 370.875 593.487 368.455 598.492 368.455C605.917 368.455 610.922 374.12 610.922 382.48V383.635C610.922 392.05 605.917 397.715 598.492 397.715C593.487 397.715 590.627 395.35 589.527 392.765H588.977V408H584.192ZM589.032 383.03C589.032 389.85 592.112 393.865 597.502 393.865C602.947 393.865 606.192 389.85 606.192 383.03C606.192 376.265 602.947 372.25 597.502 372.25C592.112 372.25 589.032 376.265 589.032 383.03ZM629.616 397.825C621.256 397.825 615.646 391.885 615.646 383.085V382.535C615.646 374.01 621.256 368.29 629.616 368.29C638.031 368.29 643.751 374.01 643.751 382.48V383.03C643.751 391.885 638.031 397.825 629.616 397.825ZM620.376 382.865C620.376 389.85 623.841 393.975 629.671 393.92C635.501 393.92 639.021 389.795 639.021 382.81C639.021 376.1 635.501 372.195 629.671 372.195C623.841 372.195 620.376 376.1 620.376 382.865ZM646.287 404.7V393.095H649.642C653.877 385.56 654.592 377.09 655.032 369.115H674.392V393.095H678.187V404.7H673.402V397H651.072V404.7H646.287ZM654.977 393.095H669.662V373.02H659.432C658.827 382.15 657.287 388.035 654.977 392.545V393.095Z" fill="#131313"/>
<path d="M819.862 396.64C813.502 396.64 809.502 393.48 809.502 388.52C809.502 384.88 811.662 382.08 815.502 381.04V380.48C812.302 379.52 810.502 377.2 810.502 374.2C810.502 369.84 814.102 367.12 819.862 367.12C825.582 367.12 829.182 369.84 829.182 374.2C829.182 377.2 827.422 379.56 824.222 380.48V381.04C828.062 382.08 830.182 384.88 830.182 388.52C830.182 393.52 826.182 396.64 819.862 396.64ZM813.102 387.92C813.102 391.44 815.702 393.64 819.862 393.64C823.982 393.64 826.622 391.44 826.622 387.92C826.622 384.4 823.982 382.2 819.862 382.2C815.702 382.2 813.102 384.4 813.102 387.92ZM813.942 374.76C813.942 377.68 816.222 379.56 819.822 379.56C823.462 379.56 825.742 377.68 825.742 374.76C825.742 371.8 823.462 370 819.862 370C816.222 370 813.942 371.8 813.942 374.76Z" fill="white"/>
<circle cx="863" cy="383" r="23" fill="black"/>
<path d="M867.684 375.679L865.554 372.974L858.72 375.679V382.086L865.554 384.079L869.113 390.486L861.578 395.212L858.72 391.549" stroke="white" stroke-width="2.44248"/>
<path d="M851.882 387.496L855.157 384.079L856.58 382.086L851.882 377.814L853.021 381.516L848.75 383.509L851.17 384.079L851.882 387.496Z" fill="white"/>
<path d="M851.882 387.496L855.157 384.079L856.58 382.086L851.882 377.814L853.021 381.516L848.75 383.509L851.17 384.079L851.882 387.496Z" fill="white"/>
<path d="M873.098 389.204L869.824 385.787L868.4 383.794L873.098 379.523L871.959 383.225L876.23 385.218L873.81 385.787L873.098 389.204Z" fill="white"/>
<path d="M873.098 389.204L869.824 385.787L868.4 383.794L873.098 379.523L871.959 383.225L876.23 385.218L873.81 385.787L873.098 389.204Z" fill="white"/>
<path d="M416.615 503L405.67 490.845H403.03V503H398.245V475.115H403.03V486.94H405.505L415.9 475.115H421.51L409.19 488.755L422.665 503H416.615ZM438.137 503.825C429.777 503.825 424.167 497.885 424.167 489.085V488.535C424.167 480.01 429.777 474.29 438.137 474.29C446.552 474.29 452.272 480.01 452.272 488.48V489.03C452.272 497.885 446.552 503.825 438.137 503.825ZM428.897 488.865C428.897 495.85 432.362 499.975 438.192 499.92C444.022 499.92 447.542 495.795 447.542 488.81C447.542 482.1 444.022 478.195 438.192 478.195C432.362 478.195 428.897 482.1 428.897 488.865ZM476.234 503L465.289 490.845H462.649V503H457.864V475.115H462.649V486.94H465.124L475.519 475.115H481.129L468.809 488.755L482.284 503H476.234ZM493.927 503V479.02H483.642V475.115H508.887V479.02H498.602V503H493.927ZM524.775 503.88C516.36 503.88 510.695 497.94 510.695 489.085V488.59C510.695 480.065 516.195 474.29 524.335 474.29C532.86 474.29 537.81 480.23 537.59 490.295H515.37C515.81 496.675 519.495 500.03 524.665 500.03C529.23 500.03 532.585 497.775 533.3 494.035H537.81C536.985 499.92 531.76 503.825 524.775 503.88ZM515.48 486.555H532.75C532.475 481.22 529.34 478.085 524.39 478.085C519.495 478.085 516.195 481.22 515.48 486.555ZM543.479 503V475.115H548.264C548.264 482.43 548.044 492.11 547.439 499.535H548.539C551.839 492.22 557.229 482.54 561.299 475.115H568.834V503H564.104C564.104 495.685 564.269 486.005 564.874 478.58H563.774C560.309 486.06 554.919 495.685 550.959 503H543.479ZM549.309 463.84H552.884C552.884 466.04 554.259 467.305 556.129 467.305C558.054 467.305 559.429 466.04 559.429 463.84H563.004C563.004 467.8 560.309 470.33 556.129 470.33C552.059 470.33 549.309 467.8 549.309 463.84ZM573.679 503V499.15H574.999C577.859 499.15 579.454 497.775 580.334 491.89C581.324 485.18 581.379 480.89 581.654 475.115H601.674V503H596.944V478.965H585.944C585.779 482.815 585.449 487.05 584.899 491.725C583.854 500.69 580.884 503 575.604 503H573.679ZM608.201 503V475.115H612.986V485.29H621.511C628.001 485.29 631.631 488.48 631.631 494.145C631.631 499.865 628.001 503 621.511 503H608.201ZM612.986 499.15H621.071C624.921 499.15 626.956 497.445 626.956 494.145C626.956 490.9 624.921 489.14 621.071 489.14H612.986V499.15Z" fill="#131313"/>
<path d="M802.329 502V481.04L796.089 481.08V478.48C800.849 478.48 802.449 477.92 802.609 473.72H805.809V502H802.329ZM820.691 502.6C814.251 502.6 809.971 498.2 810.051 488C810.131 478.2 814.411 473.12 822.251 473.12C824.251 473.12 826.731 473.36 828.771 473.96V477.04C825.891 476.32 823.851 476.2 822.331 476.2C815.891 476.36 813.051 480.6 813.051 488.76L813.571 488.84C815.011 485.6 817.891 483.92 821.651 483.92C826.891 483.92 830.491 487.6 830.491 493.08C830.491 498.76 826.531 502.6 820.691 502.6ZM814.291 493.4C814.291 497.36 816.811 499.76 820.691 499.76C824.571 499.76 827.131 497.24 827.131 493.2C827.131 489.28 824.651 486.84 820.851 486.84C816.851 486.84 814.291 489.4 814.291 493.4Z" fill="white"/>
<circle cx="863" cy="489" r="23" fill="black"/>
<path d="M867.684 481.679L865.554 478.974L858.72 481.679V488.086L865.554 490.079L869.113 496.486L861.578 501.212L858.72 497.549" stroke="white" stroke-width="2.44248"/>
<path d="M851.882 493.496L855.157 490.079L856.58 488.086L851.882 483.814L853.021 487.516L848.75 489.509L851.17 490.079L851.882 493.496Z" fill="white"/>
<path d="M851.882 493.496L855.157 490.079L856.58 488.086L851.882 483.814L853.021 487.516L848.75 489.509L851.17 490.079L851.882 493.496Z" fill="white"/>
<path d="M873.098 495.204L869.824 491.787L868.4 489.794L873.098 485.523L871.959 489.225L876.23 491.218L873.81 491.787L873.098 495.204Z" fill="white"/>
<path d="M873.098 495.204L869.824 491.787L868.4 489.794L873.098 485.523L871.959 489.225L876.23 491.218L873.81 491.787L873.098 495.204Z" fill="white"/>
<path d="M696.856 659.3C697.056 650.1 702.556 641.5 716.156 632.2C728.456 623.7 736.156 617.7 736.156 609C736.156 601.3 730.356 597.2 721.856 597.2C712.656 597.2 705.856 601.9 705.456 613.8H697.256C697.356 598.4 706.456 590.1 721.856 590.1C735.856 590.1 744.856 597.1 744.856 608.8C744.856 622.7 732.756 630.9 722.556 637.5C710.356 645.5 706.756 651.4 706.556 654.4L746.356 654.3V662H696.756L696.856 659.3ZM787.578 662V644.1H751.778V635.6L783.078 591.3H796.278V636.9L806.178 636.8V644.1H796.278V662H787.578ZM759.678 637H787.578C787.678 624 787.678 610.9 788.378 598.3H786.678L759.678 636.2V637Z" fill="black"/>
<circle cx="879" cy="623" r="39" fill="white"/>
<path d="M886.943 610.586L883.332 605.999L871.744 610.586V621.45L883.332 624.83L889.367 635.693L876.589 643.708L871.744 637.496" stroke="black" stroke-width="4.14159"/>
<path d="M860.147 630.623L865.7 624.829L868.114 621.449L860.147 614.207L862.078 620.484L854.836 623.864L858.94 624.829L860.147 630.623Z" fill="black"/>
<path d="M860.147 630.623L865.7 624.829L868.114 621.449L860.147 614.207L862.078 620.484L854.836 623.864L858.94 624.829L860.147 630.623Z" fill="black"/>
<path d="M896.122 633.52L890.57 627.726L888.156 624.347L896.122 617.104L894.191 623.381L901.434 626.761L897.33 627.726L896.122 633.52Z" fill="black"/>
<path d="M896.122 633.52L890.57 627.726L888.156 624.347L896.122 617.104L894.191 623.381L901.434 626.761L897.33 627.726L896.122 633.52Z" fill="black"/>
<path d="M1101.46 789.398L1079 937L1135.71 1040.27L1439.5 1084L1498.5 789.398L1315.94 816.337L1229.48 772L1101.46 789.398Z" fill="#E4E4E4"/>
<path d="M1179.04 914.6C1170.36 914.6 1165.96 908.44 1165.96 900.56V899.16C1165.96 891.28 1170.36 885.12 1179.04 885.12C1187.68 885.12 1192.2 891.28 1192.2 899.16V900.56C1192.2 908.44 1187.76 914.6 1179.04 914.6ZM1169.68 900.56C1169.68 907.16 1173.32 911.4 1179.04 911.4C1184.8 911.4 1188.48 907.16 1188.48 900.56V899.2C1188.48 892.56 1184.8 888.36 1179.04 888.36C1173.32 888.36 1169.68 892.56 1169.68 899.2V900.56ZM1207.68 914V910.04C1200.12 909.64 1195.88 906.04 1195.88 899.8C1195.88 893.32 1200.12 890.04 1207.68 889.68V885.72H1211.4V889.68C1218.92 890.04 1223.16 893.32 1223.16 899.8C1223.16 906 1218.92 909.64 1211.4 910.04V914H1207.68ZM1199.56 899.84C1199.56 904.12 1202.36 906.44 1207.68 906.84V892.92C1202.48 893.24 1199.56 895.36 1199.56 899.84ZM1211.4 906.8C1216.6 906.44 1219.56 904.08 1219.56 899.84C1219.56 895.36 1216.6 893.24 1211.4 892.92V906.8ZM1239.94 914.6C1231.26 914.6 1226.86 908.44 1226.86 900.56V899.16C1226.86 891.28 1231.26 885.12 1239.94 885.12C1248.58 885.12 1253.1 891.28 1253.1 899.16V900.56C1253.1 908.44 1248.66 914.6 1239.94 914.6ZM1230.58 900.56C1230.58 907.16 1234.22 911.4 1239.94 911.4C1245.7 911.4 1249.38 907.16 1249.38 900.56V899.2C1249.38 892.56 1245.7 888.36 1239.94 888.36C1234.22 888.36 1230.58 892.56 1230.58 899.2V900.56ZM1257.77 914V885.72H1268.81C1274.57 885.72 1278.33 888.4 1278.33 894C1278.33 899.64 1274.57 902.68 1268.81 902.68H1261.49V914H1257.77ZM1261.49 899.44H1268.53C1272.61 899.44 1274.57 897.56 1274.57 894C1274.57 890.44 1272.61 888.96 1268.53 888.96H1261.49V899.44ZM1282.27 914V885.72H1289.43C1292.15 894.12 1294.87 902.52 1297.23 911.32H1298.39C1300.71 902.52 1303.35 894.12 1306.03 885.72L1313.15 885.76V914H1309.43C1309.43 905.64 1309.35 897.24 1309.63 888.44H1308.55C1306.15 897.32 1303.39 905.64 1300.83 914H1294.71C1292.07 905.6 1289.27 897.24 1286.79 888.4H1285.71C1285.99 897.24 1285.91 905.6 1285.91 914H1282.27ZM1338.76 914C1338.76 905.64 1338.8 897.28 1338.92 888.4H1338C1334.16 897.28 1330 905.64 1325.88 914H1318.6V885.72H1322.32C1322.32 894.12 1322.32 902.44 1322.16 911.2H1323.36C1327.2 902.44 1331.36 894.12 1335.44 885.72H1342.52V914H1338.76ZM1355.29 914V888.96H1345.85V885.72H1368.45V888.96H1359.01V914H1355.29ZM1371.76 914V885.72H1375.48V897H1382.92C1388.96 897 1392.36 900.04 1392.36 905.44C1392.36 910.84 1388.96 914 1382.92 914H1371.76ZM1375.48 910.8H1382.32C1386.64 910.8 1388.64 908.84 1388.64 905.44C1388.64 902.08 1386.64 900.16 1382.32 900.16H1375.48V910.8ZM1176.64 958.56C1169 958.56 1165.68 954.84 1165.56 949.08H1168.92C1169.2 953.92 1172.24 955.4 1176.52 955.4C1180.92 955.4 1184.04 953.76 1184.04 950.08C1184.04 946.04 1180.36 944.84 1174.88 944.68C1174.32 944.68 1173.8 944.64 1172.84 944.64V941.64C1173.8 941.64 1174.28 941.64 1174.88 941.6C1180.36 941.36 1182.88 939.84 1182.88 936.8C1182.88 933.64 1180.16 932.28 1176.4 932.28C1172.4 932.28 1169.52 933.92 1169.28 938.56H1165.92C1166.08 932.68 1169.64 929.12 1176.48 929.12C1182.24 929.12 1186.4 931.76 1186.4 936.44C1186.4 939.6 1184.4 942.12 1179.84 942.64V943.36C1184.64 943.64 1187.68 945.84 1187.68 950.24C1187.68 955.68 1183 958.56 1176.64 958.56ZM1189.92 958L1198.92 929.72H1206.08L1215.16 958H1211.24L1208.4 949H1196.56L1193.72 958H1189.92ZM1197.44 946H1207.56C1206.16 941.64 1204.68 937.28 1203.48 932.44H1201.48C1200.28 937.28 1198.8 941.64 1197.44 946ZM1218.95 958V929.72H1222.67V942.12H1224.95L1234.87 929.72H1239.19L1228.27 943.2L1239.63 958H1235.11L1225.59 945.32H1222.67V958H1218.95ZM1241.56 958L1250.56 929.72H1257.72L1266.8 958H1262.88L1260.04 949H1248.2L1245.36 958H1241.56ZM1249.08 946H1259.2C1257.8 941.64 1256.32 937.28 1255.12 932.44H1253.12C1251.92 937.28 1250.44 941.64 1249.08 946ZM1280.31 958.56C1272.67 958.56 1269.35 954.84 1269.23 949.08H1272.59C1272.87 953.92 1275.91 955.4 1280.19 955.4C1284.59 955.4 1287.71 953.76 1287.71 950.08C1287.71 946.04 1284.03 944.84 1278.55 944.68C1277.99 944.68 1277.47 944.64 1276.51 944.64V941.64C1277.47 941.64 1277.95 941.64 1278.55 941.6C1284.03 941.36 1286.55 939.84 1286.55 936.8C1286.55 933.64 1283.83 932.28 1280.07 932.28C1276.07 932.28 1273.19 933.92 1272.95 938.56H1269.59C1269.75 932.68 1273.31 929.12 1280.15 929.12C1285.91 929.12 1290.07 931.76 1290.07 936.44C1290.07 939.6 1288.07 942.12 1283.51 942.64V943.36C1288.31 943.64 1291.35 945.84 1291.35 950.24C1291.35 955.68 1286.67 958.56 1280.31 958.56Z" fill="#131313"/>
<path d="M1293 179.5L1334 213.5" stroke="black" stroke-width="8"/>
<path d="M1331 170L1311.5 213.5" stroke="black" stroke-width="8"/>
</g>
<defs>
<clipPath id="clip0_312_560">
<rect width="1440" height="1024" fill="white"/>
</clipPath>
</defs>
</svg>
