<svg width="382" height="177" viewBox="0 0 382 177" fill="none" xmlns="http://www.w3.org/2000/svg">
<path fill-rule="evenodd" clip-rule="evenodd" d="M0.382812 50.2657L38.2735 146.442L140.926 176.697L202.499 159.491L279.247 137.84L346.232 146.442L381.9 96.7591L368.262 79.9234L357.637 58.0948L343.954 86.2082L333.28 89.2196L297.732 79.7714L310.336 49.2041L282.195 57.1064L269.484 37.3132L265.25 36.7124L253.323 9.36184L240.465 33.1954L234.477 32.3456L220.625 45.711L200.771 30.7061L201.364 64.2941L175.531 89.2196L167.84 89.2196L155.231 63.3142L142.622 89.2196L110.672 89.2196L81.4805 37.3132L12.8036 0.00247192L0.382812 50.2657Z" fill="#E4E4E4"/>
</svg>
