<svg width="489" height="443" viewBox="0 0 489 443" fill="none" xmlns="http://www.w3.org/2000/svg">
<path d="M201.703 297.957L140.927 295.15L66.9686 269.875L70.7907 218.241L148.696 166.663L244.901 132.759L344.714 133.343L408.605 160.819L432.756 219.267L401.935 250.783L363.909 246.265L329.012 221.508L268.31 231.827L231.833 268.716L201.703 297.957Z" fill="#E4E4E4"/>
<path d="M180.039 323.362L158.824 293.73L190.271 288.385L180.039 323.362Z" fill="#E4E4E4"/>
<path d="M241.113 296.882L209.43 278.875L235.738 260.837L241.113 296.882Z" fill="#E4E4E4"/>
<path d="M285.242 255.639L250.852 243.581L273.515 221.134L285.242 255.639Z" fill="#E4E4E4"/>
<path d="M329.802 253.936L326.066 217.685L356.027 228.631L329.802 253.936Z" fill="#E4E4E4"/>
<path d="M394.59 276.146L373.375 246.514L404.822 241.169L394.59 276.146Z" fill="#E4E4E4"/>
</svg>
