<svg width="172" height="91" viewBox="0 0 172 91" fill="none" xmlns="http://www.w3.org/2000/svg">
<path d="M0.5 40L40 0.5H113.5L172 45.5L160 87L119 91L76 81L33.5 91L0.5 40Z" fill="black"/>
<path d="M25.5988 58.92C25.6788 55.24 27.8788 51.8 33.3188 48.08C38.2388 44.68 41.3188 42.28 41.3188 38.8C41.3188 35.72 38.9988 34.08 35.5988 34.08C31.9188 34.08 29.1988 35.96 29.0388 40.72H25.7588C25.7988 34.56 29.4388 31.24 35.5988 31.24C41.1988 31.24 44.7988 34.04 44.7988 38.72C44.7988 44.28 39.9588 47.56 35.8788 50.2C30.9988 53.4 29.5588 55.76 29.4788 56.96L45.3988 56.92V60H25.5588L25.5988 58.92ZM59.3675 60.6C51.6075 60.6 48.6475 54.52 48.6475 46.52V45.24C48.6475 37.2 51.6075 31.12 59.3675 31.12C67.0875 31.12 70.0075 37.2 70.0075 45.24V46.52C70.0075 54.52 67.0875 60.6 59.3675 60.6ZM52.2075 46.6C52.2075 53.64 54.3675 57.72 59.3675 57.72C64.3275 57.72 66.4475 53.64 66.4475 46.6V45.12C66.4475 38.12 64.3275 34 59.3675 34C54.3675 34 52.2075 38.12 52.2075 45.12V46.6Z" fill="white"/>
<circle cx="103" cy="47" r="23" fill="#FF9330"/>
<path d="M107.684 39.6788L105.554 36.9738L98.7201 39.6788V46.0856L105.554 48.0788L109.113 54.4856L101.578 59.2123L98.7201 55.5486" stroke="white" stroke-width="2.44248"/>
<path d="M91.8822 51.4958L95.1568 48.0788L96.5805 46.0856L91.8822 41.8145L93.0212 45.5161L88.75 47.5093L91.1703 48.0788L91.8822 51.4958Z" fill="white"/>
<path d="M91.8822 51.4958L95.1568 48.0788L96.5805 46.0856L91.8822 41.8145L93.0212 45.5161L88.75 47.5093L91.1703 48.0788L91.8822 51.4958Z" fill="white"/>
<path d="M113.098 53.2043L109.824 49.7873L108.4 47.7941L113.098 43.5229L111.959 47.2246L116.23 49.2178L113.81 49.7873L113.098 53.2043Z" fill="white"/>
<path d="M113.098 53.2043L109.824 49.7873L108.4 47.7941L113.098 43.5229L111.959 47.2246L116.23 49.2178L113.81 49.7873L113.098 53.2043Z" fill="white"/>
</svg>
