<svg width="1002" height="344" viewBox="0 0 1002 344" fill="none" xmlns="http://www.w3.org/2000/svg">
<path d="M222.5 241L223.568 244.333L224.715 243.965L225.393 242.97L222.5 241ZM318.5 100V96.5H316.649L315.607 98.0302L318.5 100ZM569 100V103.5H569.962L570.788 103.009L569 100ZM730.5 4L730.843 0.516878L729.7 0.404146L728.712 0.991403L730.5 4ZM974 28L977.45 27.413L977.002 24.779L974.343 24.5169L974 28ZM998.5 172H1002V171.704L1001.95 171.413L998.5 172ZM998.5 306L999.731 309.276L1002 308.424V306H998.5ZM916 337L955.871 343.605L941.656 305.773L916 337ZM105.5 278.5L103.851 281.587L105.158 282.285L106.568 281.833L105.5 278.5ZM225.393 242.97L321.393 101.97L315.607 98.0302L219.607 239.03L225.393 242.97ZM318.5 103.5H569V96.5H318.5V103.5ZM570.788 103.009L732.288 7.0086L728.712 0.991403L567.212 96.9914L570.788 103.009ZM730.157 7.48312L973.657 31.4831L974.343 24.5169L730.843 0.516878L730.157 7.48312ZM970.55 28.587L995.05 172.587L1001.95 171.413L977.45 27.413L970.55 28.587ZM995 172V306H1002V172H995ZM997.269 302.724L944.256 322.644L946.718 329.196L999.731 309.276L997.269 302.724ZM221.432 237.667L104.432 275.167L106.568 281.833L223.568 244.333L221.432 237.667ZM107.149 275.413L4.14861 220.413L0.851386 226.587L103.851 281.587L107.149 275.413Z" fill="#FF9330"/>
</svg>
