<svg width="900" height="420" viewBox="0 0 900 420" fill="none" xmlns="http://www.w3.org/2000/svg">
<path d="M376.5 81L377.834 77.7643L379.497 78.4502L379.908 80.2017L376.5 81ZM430.5 311.5L430.234 314.99L427.677 314.795L427.092 312.298L430.5 311.5ZM818 341L818.266 337.51L819.515 337.605L820.42 338.472L818 341ZM900 419.5L860.744 409.894L888.691 380.7L900 419.5ZM191 4.5L189.687 1.25568L191.012 0.719147L192.334 1.26434L191 4.5ZM379.908 80.2017L433.908 310.702L427.092 312.298L373.092 81.7983L379.908 80.2017ZM430.766 308.01L818.266 337.51L817.734 344.49L430.234 314.99L430.766 308.01ZM820.42 338.472L879.666 395.189L874.826 400.245L815.58 343.528L820.42 338.472ZM0.686825 77.7557L189.687 1.25568L192.313 7.74432L3.31317 84.2443L0.686825 77.7557ZM192.334 1.26434L377.834 77.7643L375.166 84.2357L189.666 7.73566L192.334 1.26434Z" fill="#FF9330"/>
</svg>
