<svg width="2042" height="871" viewBox="0 0 2042 871" fill="none" xmlns="http://www.w3.org/2000/svg">
<mask id="mask0_307_309" style="mask-type:alpha" maskUnits="userSpaceOnUse" x="525" y="0" width="1016" height="733">
<path d="M529.5 265L547.5 5L1046.5 26L1521.5 5L1536.5 214L1521.5 480L1536.5 728L1046.5 686L529.5 710L547.5 480L529.5 265Z" fill="white"/>
<path d="M529.5 265L547.5 5L1046.5 26L1521.5 5L1536.5 214L1521.5 480L1536.5 728L1046.5 686L529.5 710L547.5 480L529.5 265Z" fill="white"/>
<path d="M529.5 265L547.5 5L1046.5 26L1521.5 5L1536.5 214L1521.5 480L1536.5 728L1046.5 686L529.5 710L547.5 480L529.5 265Z" stroke="black" stroke-width="8"/>
</mask>
<g mask="url(#mask0_307_309)">
<path d="M529.5 265L547.5 5L1046.5 26L1521.5 5L1536.5 214L1521.5 480L1536.5 728L1046.5 686L529.5 710L547.5 480L529.5 265Z" fill="#E4E4E4" stroke="black" stroke-width="8"/>
<path d="M1058.5 184L1179.5 24.5L1500 -29.5L1577 6.5L1520.5 474L1409.5 520.5L1224 420L1091 323L1058.5 184Z" fill="#FF9330"/>
<path d="M990.5 617.5L869.5 777L549 831L472 795L528.5 327.5L639.5 281L825 381.5L958 478.5L990.5 617.5Z" fill="black"/>
<path d="M529.5 265L547.5 5L1046.5 26L1521.5 5L1536.5 214L1521.5 480L1536.5 728L1046.5 686L529.5 710L547.5 480L529.5 265Z" stroke="black" stroke-width="8"/>
<path d="M1234.82 94L1241.14 55.115H1246.31L1243.62 71.34H1264.02L1266.66 55.115H1271.78L1265.45 94H1260.28L1263.31 75.795H1242.9L1239.93 94H1234.82ZM1270.59 94L1288.85 55.115H1298.69L1305.29 94H1299.96L1297.87 81.625H1281.59L1275.87 94H1270.59ZM1283.4 77.5H1297.32C1296.33 71.505 1295.23 65.455 1294.57 58.855H1291.82C1289.18 65.51 1286.21 71.505 1283.4 77.5ZM1310.61 94L1316.71 55.115H1347.4L1341.3 94H1336.13L1341.57 59.57H1321.22L1315.78 94H1310.61ZM1376.62 94C1378.49 82.23 1380.25 70.735 1382.45 58.745L1381.13 58.8C1373.93 71.23 1366.39 82.67 1358.97 94H1348.85L1354.95 55.115H1360.12C1358.25 66.885 1356.44 78.38 1354.35 90.15H1355.94C1363.15 77.885 1370.68 66.445 1378.11 55.115H1387.9L1381.79 94H1376.62ZM1399.36 94L1404.8 59.57H1391.88L1392.54 55.115H1423.61L1422.95 59.57H1409.97L1404.53 94H1399.36ZM1422.11 94L1428.43 55.115H1433.66L1430.85 72.165H1433.88L1450.32 55.115H1456.37L1438.39 73.76L1450.54 94H1444.49L1434.21 76.565H1430.08L1427.28 94H1422.11ZM1482.65 94C1484.52 82.23 1486.28 70.735 1488.48 58.745L1487.16 58.8C1479.95 71.23 1472.42 82.67 1464.99 94H1454.87L1460.98 55.115H1466.15C1464.28 66.885 1462.46 78.38 1460.37 90.15H1461.97C1469.17 77.885 1476.71 66.445 1484.13 55.115H1493.92L1487.82 94H1482.65Z" fill="black"/>
<path d="M581.26 607.825C570.59 607.825 566.3 600.785 566.41 592.095L566.465 591.325C566.575 578.95 574 567.29 587.42 567.29C596.33 567.29 602.05 572.405 601.28 581.81H596.33C596.715 575.485 593.525 571.745 587.255 571.745C575.76 571.745 571.69 583.625 571.635 591.325L571.58 591.875C571.525 598.695 574.605 603.425 581.59 603.425C587.64 603.425 593.085 599.795 594.625 593.305H599.63C597.32 603.59 589.565 607.825 581.26 607.825ZM603.911 607L610.016 568.115H635.921L635.261 572.57H614.526L612.656 584.45H632.676L631.961 588.85H611.941L609.741 602.6H631.081L630.421 607H603.911ZM650.478 607.77C639.918 607.77 636.068 602.545 637.058 594.735L641.678 594.79C640.963 601.005 644.483 603.425 650.533 603.425C657.023 603.425 662.358 600.51 662.413 595.01C662.523 590.17 657.958 588.905 651.083 588.685C650.258 588.685 649.543 588.63 648.223 588.63L648.718 584.505C649.928 584.505 650.588 584.505 651.303 584.45C657.793 584.175 663.568 582.36 663.678 576.915C663.733 573.12 660.543 571.635 655.923 571.635C650.258 571.635 645.748 574.055 644.483 580.325L639.863 580.27C641.403 572.075 646.903 567.29 656.198 567.29C663.623 567.29 668.738 570.48 668.628 576.475C668.518 581.92 664.283 585.22 658.178 585.88L658.013 586.87C663.843 587.31 667.473 589.95 667.363 595.23C667.253 603.315 659.553 607.77 650.478 607.77ZM688.589 607.825C677.974 607.825 673.079 601.115 673.134 591.985L673.189 591.215C673.244 578.785 681.219 567.29 694.804 567.29C705.419 567.29 710.314 574.055 710.204 583.185V583.955C710.149 596.33 702.504 607.825 688.589 607.825ZM678.359 591.765C678.359 599.08 682.044 603.425 688.864 603.425C699.479 603.425 704.979 593.14 705.034 584.065V583.46C705.089 576.09 701.349 571.745 694.529 571.745C683.804 571.745 678.469 582.305 678.414 591.16L678.359 591.765ZM713.267 607L719.592 568.115H724.762L722.067 584.34H742.472L745.112 568.115H750.227L743.902 607H738.732L741.757 588.795H721.352L718.382 607H713.267ZM751.455 607L757.78 568.115H762.95L760.255 584.34H780.66L783.3 568.115H788.415L782.09 607H776.92L779.945 588.795H759.54L756.57 607H751.455ZM789.644 607L795.749 568.115H800.919L798.444 583.625H808.729C816.154 583.625 820.169 587.255 820.004 593.8C819.839 600.675 815.109 607 804.879 607H789.644ZM795.474 602.6H804.604C811.864 602.6 814.779 598.31 814.889 594.13C814.944 590.115 812.634 587.97 807.464 587.97H797.784L795.474 602.6ZM823.744 607L829.849 568.115H835.074L828.914 607H823.744ZM836.48 607L842.585 568.115H868.49L867.83 572.57H847.095L845.225 584.45H865.245L864.53 588.85H844.51L842.31 602.6H863.65L862.99 607H836.48ZM564.595 671L571.36 632.115H596.77L596 636.515H575.815L573.835 647.625H583.845C591.215 647.625 595.23 651.255 595.065 657.8C594.9 664.675 590.225 671 579.995 671H564.595ZM570.535 666.6H579.72C586.925 666.6 589.895 662.31 589.95 658.13C590.06 654.115 587.695 651.97 582.525 651.97H573.12L570.535 666.6ZM596.388 671L597.103 666.655H598.203C601.008 666.655 602.823 665.445 604.693 658.955C607.058 651.145 608.818 642.18 610.963 632.115H636.318L630.158 671H624.988L630.433 636.57H615.033C613.273 644.93 611.458 653.015 609.533 659.945C606.728 669.35 604.033 671 597.873 671H596.388ZM667.504 671.825C657.219 671.825 652.599 665.335 652.654 656.205V655.435C652.654 654.83 652.709 654.225 652.764 653.565H645.669L642.919 671H637.749L643.854 632.115H649.024L646.329 649.165H653.369C655.404 640.035 661.784 631.29 673.444 631.29C683.674 631.29 688.349 637.835 688.294 646.965V647.735C688.239 659.34 681.584 671.825 667.504 671.825ZM657.769 655.985C657.714 663.135 661.124 667.425 667.724 667.425C678.944 667.425 683.124 655.765 683.234 647.845V647.24C683.234 640.035 679.769 635.745 673.169 635.745C661.894 635.745 657.824 647.57 657.769 655.38V655.985ZM686.214 678.37L688.029 666.6H691.054C699.194 656.865 700.954 644.545 703.374 632.115H728.399L723.009 666.6H726.804L724.934 678.37H719.984L721.139 671H692.319L691.164 678.37H686.214ZM697.104 666.6H717.839L722.569 636.57H707.774C705.354 648.835 702.054 661.375 697.104 665.83V666.6ZM729.323 671L747.583 632.115H757.428L764.028 671H758.693L756.603 658.625H740.323L734.603 671H729.323ZM742.138 654.5H756.053C755.063 648.505 753.963 642.455 753.303 635.855H750.553C747.913 642.51 744.943 648.505 742.138 654.5Z" fill="#FF9330"/>
<path d="M1251.48 149.128L1278.25 129.447L1325.48 126.298L1357.76 146.766L1350.67 186.915L1328.24 194L1295.17 186.915H1262.11L1251.48 149.128Z" fill="black"/>
<path d="M1276.56 171.532V155.031L1271.65 155.063V153.016C1275.4 153.016 1276.66 152.575 1276.78 149.269H1279.3V171.532H1276.56ZM1291.02 172.004C1285.95 172.004 1282.58 168.54 1282.64 160.511C1282.71 152.796 1286.08 148.797 1292.25 148.797C1293.82 148.797 1295.77 148.985 1297.38 149.458V151.882C1295.11 151.316 1293.51 151.221 1292.31 151.221C1287.24 151.347 1285 154.685 1285 161.109L1285.41 161.172C1286.55 158.621 1288.81 157.299 1291.77 157.299C1295.9 157.299 1298.73 160.196 1298.73 164.51C1298.73 168.981 1295.62 172.004 1291.02 172.004ZM1285.98 164.762C1285.98 167.879 1287.96 169.768 1291.02 169.768C1294.07 169.768 1296.09 167.785 1296.09 164.604C1296.09 161.518 1294.14 159.597 1291.14 159.597C1288 159.597 1285.98 161.613 1285.98 164.762Z" fill="white"/>
<circle cx="1325.09" cy="160.936" r="18.1064" fill="white"/>
<path d="M1325.09 149.915L1325.09 171.957" stroke="#FF9330" stroke-width="3.14894"/>
<path d="M1314.07 160.936L1336.11 160.936" stroke="#FF9330" stroke-width="3.14894"/>
<path d="M1093.37 181.45C1088.81 181.45 1085.75 178.21 1085.75 173.41V173.11C1085.75 168.46 1088.81 165.34 1093.37 165.34C1097.96 165.34 1101.08 168.46 1101.08 173.08V173.38C1101.08 178.21 1097.96 181.45 1093.37 181.45ZM1088.33 173.29C1088.33 177.1 1090.22 179.35 1093.4 179.32C1096.58 179.32 1098.5 177.07 1098.5 173.26C1098.5 169.6 1096.58 167.47 1093.4 167.47C1090.22 167.47 1088.33 169.6 1088.33 173.29ZM1111.3 181.45C1106.71 181.45 1103.65 178.21 1103.65 173.38V173.08C1103.65 168.46 1106.71 165.34 1111.3 165.34C1115.2 165.34 1118.05 167.62 1118.32 170.95H1115.8C1115.5 168.85 1113.76 167.47 1111.3 167.47C1108.15 167.47 1106.23 169.66 1106.23 173.26C1106.23 177.01 1108.15 179.32 1111.3 179.32C1113.85 179.32 1115.65 177.82 1115.95 175.48H1118.47C1118.08 179.05 1115.2 181.45 1111.3 181.45ZM1125.03 181V167.92H1119.42V165.79H1133.19V167.92H1127.58V181H1125.03ZM1135.45 187V165.79H1138.06V168.34H1138.36C1138.84 166.75 1140.52 165.43 1143.25 165.43C1147.3 165.43 1150.03 168.52 1150.03 173.08V173.71C1150.03 178.3 1147.3 181.39 1143.25 181.39C1140.52 181.39 1138.96 180.1 1138.36 178.69H1138.06V187H1135.45ZM1138.09 173.38C1138.09 177.1 1139.77 179.29 1142.71 179.29C1145.68 179.29 1147.45 177.1 1147.45 173.38C1147.45 169.69 1145.68 167.5 1142.71 167.5C1139.77 167.5 1138.09 169.69 1138.09 173.38ZM1167.88 181V165.79H1170.43V181H1167.88ZM1153.09 181V165.79H1155.7V171.34H1160.35C1163.89 171.34 1165.87 173.08 1165.87 176.17C1165.87 179.29 1163.89 181 1160.35 181H1153.09ZM1155.7 178.9H1160.11C1162.21 178.9 1163.32 177.97 1163.32 176.17C1163.32 174.4 1162.21 173.44 1160.11 173.44H1155.7V178.9ZM1173.98 181V165.79H1176.59C1176.59 169.78 1176.47 175.06 1176.14 179.11H1176.74C1178.54 175.12 1181.48 169.84 1183.7 165.79H1187.81V181H1185.23C1185.23 177.01 1185.32 171.73 1185.65 167.68H1185.05C1183.16 171.76 1180.22 177.01 1178.06 181H1173.98ZM1177.16 159.64H1179.11C1179.11 160.84 1179.86 161.53 1180.88 161.53C1181.93 161.53 1182.68 160.84 1182.68 159.64H1184.63C1184.63 161.8 1183.16 163.18 1180.88 163.18C1178.66 163.18 1177.16 161.8 1177.16 159.64ZM1205.26 181.45C1200.67 181.45 1197.61 178.21 1197.61 173.38V173.08C1197.61 168.46 1200.67 165.34 1205.26 165.34C1209.16 165.34 1212.01 167.62 1212.28 170.95H1209.76C1209.46 168.85 1207.72 167.47 1205.26 167.47C1202.11 167.47 1200.19 169.66 1200.19 173.26C1200.19 177.01 1202.11 179.32 1205.26 179.32C1207.81 179.32 1209.61 177.82 1209.91 175.48H1212.43C1212.04 179.05 1209.16 181.45 1205.26 181.45ZM1222.63 181.45C1218.07 181.45 1215.01 178.21 1215.01 173.41V173.11C1215.01 168.46 1218.07 165.34 1222.63 165.34C1227.22 165.34 1230.34 168.46 1230.34 173.08V173.38C1230.34 178.21 1227.22 181.45 1222.63 181.45ZM1217.59 173.29C1217.59 177.1 1219.48 179.35 1222.66 179.32C1225.84 179.32 1227.76 177.07 1227.76 173.26C1227.76 169.6 1225.84 167.47 1222.66 167.47C1219.48 167.47 1217.59 169.6 1217.59 173.29ZM1243.41 181L1237.44 174.37H1236V181H1233.39V165.79H1236V172.24H1237.35L1243.02 165.79H1246.08L1239.36 173.23L1246.71 181H1243.41Z" fill="white"/>
<path d="M1251.48 149.128L1278.25 129.447L1325.48 126.298L1357.76 146.766L1350.67 186.915L1328.24 194L1295.17 186.915H1262.11L1251.48 149.128Z" fill="black"/>
<path d="M1276.56 171.532V155.031L1271.65 155.063V153.016C1275.4 153.016 1276.66 152.575 1276.78 149.269H1279.3V171.532H1276.56ZM1291.02 172.004C1285.95 172.004 1282.58 168.54 1282.64 160.511C1282.71 152.796 1286.08 148.797 1292.25 148.797C1293.82 148.797 1295.77 148.985 1297.38 149.458V151.882C1295.11 151.316 1293.51 151.221 1292.31 151.221C1287.24 151.347 1285 154.685 1285 161.109L1285.41 161.172C1286.55 158.621 1288.81 157.299 1291.77 157.299C1295.9 157.299 1298.73 160.196 1298.73 164.51C1298.73 168.981 1295.62 172.004 1291.02 172.004ZM1285.98 164.762C1285.98 167.879 1287.96 169.768 1291.02 169.768C1294.07 169.768 1296.09 167.785 1296.09 164.604C1296.09 161.518 1294.14 159.597 1291.14 159.597C1288 159.597 1285.98 161.613 1285.98 164.762Z" fill="white"/>
<circle cx="1325.09" cy="160.936" r="18.1064" fill="white"/>
<path d="M1325.09 149.915L1325.09 171.957" stroke="#FF9330" stroke-width="3.14894"/>
<path d="M1314.07 160.936L1336.11 160.936" stroke="#FF9330" stroke-width="3.14894"/>
<path d="M1201.31 263V247.79H1211.09V249.92H1203.92V263H1201.31ZM1220.06 263.45C1215.5 263.45 1212.44 260.21 1212.44 255.41V255.11C1212.44 250.46 1215.5 247.34 1220.06 247.34C1224.65 247.34 1227.77 250.46 1227.77 255.08V255.38C1227.77 260.21 1224.65 263.45 1220.06 263.45ZM1215.02 255.29C1215.02 259.1 1216.91 261.35 1220.09 261.32C1223.27 261.32 1225.19 259.07 1225.19 255.26C1225.19 251.6 1223.27 249.47 1220.09 249.47C1216.91 249.47 1215.02 251.6 1215.02 255.29ZM1230.82 269V247.79H1233.43V250.34H1233.73C1234.21 248.75 1235.89 247.43 1238.62 247.43C1242.67 247.43 1245.4 250.52 1245.4 255.08V255.71C1245.4 260.3 1242.67 263.39 1238.62 263.39C1235.89 263.39 1234.33 262.1 1233.73 260.69H1233.43V269H1230.82ZM1233.46 255.38C1233.46 259.1 1235.14 261.29 1238.08 261.29C1241.05 261.29 1242.82 259.1 1242.82 255.38C1242.82 251.69 1241.05 249.5 1238.08 249.5C1235.14 249.5 1233.46 251.69 1233.46 255.38ZM1247.55 262.7C1248.54 260.45 1247.76 256.22 1251.6 255.77V255.53C1249.53 255.26 1248 253.85 1248 251.6C1248 249.11 1249.89 247.4 1253.22 247.4H1260.72V263H1258.11V256.55H1253.85C1250.52 256.55 1251.33 261.35 1250.31 263H1247.55V262.7ZM1250.64 252.02C1250.64 253.58 1251.84 254.57 1253.88 254.57H1258.11V249.53H1253.88C1251.84 249.53 1250.64 250.43 1250.64 252.02ZM1268.95 257.3C1265.26 257.33 1263.7 255.89 1263.7 252.65V247.79H1266.28V251.87C1266.28 254.48 1266.97 255.2 1269.49 255.17C1270.72 255.17 1271.98 255.02 1273.18 254.78V247.79H1275.79V263H1273.18V256.67C1271.8 257.03 1270.33 257.27 1268.95 257.3ZM1283.98 263.42C1280.68 263.42 1278.76 261.68 1278.76 258.68C1278.76 255.23 1281.19 253.7 1285.45 253.46C1286.74 253.37 1288.18 253.31 1289.29 253.28C1289.26 250.49 1288.3 249.62 1285.39 249.62C1283.89 249.62 1282.12 249.83 1279.84 250.31V248.12C1281.79 247.67 1283.35 247.43 1285.39 247.43C1289.86 247.43 1291.84 248.87 1291.84 253.28V263H1289.29V260.84H1288.96C1288 262.43 1286.47 263.42 1283.98 263.42ZM1281.34 258.62C1281.37 260.3 1282.6 261.38 1284.55 261.38C1286.89 261.38 1288.69 259.91 1289.29 257.75V255.23C1288.33 255.26 1287.13 255.32 1285.78 255.44C1282.9 255.68 1281.34 256.67 1281.34 258.62ZM1294.31 262.7C1295.3 260.45 1294.52 256.22 1298.36 255.77V255.53C1296.29 255.26 1294.76 253.85 1294.76 251.6C1294.76 249.11 1296.65 247.4 1299.98 247.4H1307.48V263H1304.87V256.55H1300.61C1297.28 256.55 1298.09 261.35 1297.07 263H1294.31V262.7ZM1297.4 252.02C1297.4 253.58 1298.6 254.57 1300.64 254.57H1304.87V249.53H1300.64C1298.6 249.53 1297.4 250.43 1297.4 252.02ZM1318.21 263V247.79H1322.8C1324.45 252.17 1325.68 255.89 1327.21 261.05H1327.81C1329.34 255.89 1330.57 252.17 1332.25 247.79H1336.75V263H1334.17C1334.17 258.92 1334.2 254.81 1334.41 249.74H1333.81C1332.25 254.12 1330.87 258.41 1329.34 263H1325.62C1324.12 258.44 1322.71 254.12 1321.12 249.74H1320.52C1320.73 254.81 1320.76 258.92 1320.76 263H1318.21ZM1347.53 263.48C1342.94 263.48 1339.85 260.24 1339.85 255.41V255.14C1339.85 250.49 1342.85 247.34 1347.29 247.34C1351.94 247.34 1354.64 250.58 1354.52 256.07H1342.4C1342.64 259.55 1344.65 261.38 1347.47 261.38C1349.96 261.38 1351.79 260.15 1352.18 258.11H1354.64C1354.19 261.32 1351.34 263.45 1347.53 263.48ZM1342.46 254.03H1351.88C1351.73 251.12 1350.02 249.41 1347.32 249.41C1344.65 249.41 1342.85 251.12 1342.46 254.03ZM1357.73 269V247.79H1360.34V250.34H1360.64C1361.12 248.75 1362.8 247.43 1365.53 247.43C1369.58 247.43 1372.31 250.52 1372.31 255.08V255.71C1372.31 260.3 1369.58 263.39 1365.53 263.39C1362.8 263.39 1361.24 262.1 1360.64 260.69H1360.34V269H1357.73ZM1360.37 255.38C1360.37 259.1 1362.05 261.29 1364.99 261.29C1367.96 261.29 1369.73 259.1 1369.73 255.38C1369.73 251.69 1367.96 249.5 1364.99 249.5C1362.05 249.5 1360.37 251.69 1360.37 255.38ZM1375.37 263V247.79H1377.98C1377.98 251.78 1377.86 257.06 1377.53 261.11H1378.13C1379.93 257.12 1382.87 251.84 1385.09 247.79H1389.2V263H1386.62C1386.62 259.01 1386.71 253.73 1387.04 249.68H1386.44C1384.55 253.76 1381.61 259.01 1379.45 263H1375.37Z" fill="white"/>
<path d="M1406 224.5L1435.5 214L1476.48 208.298L1508.76 228.766L1501.67 268.915L1476.48 285L1435.5 276L1399.5 263L1406 224.5Z" fill="black"/>
<path d="M1415.24 252.682C1415.3 249.785 1417.04 247.077 1421.32 244.148C1425.19 241.471 1427.62 239.582 1427.62 236.842C1427.62 234.418 1425.79 233.127 1423.11 233.127C1420.22 233.127 1418.07 234.607 1417.95 238.354H1415.37C1415.4 233.505 1418.26 230.891 1423.11 230.891C1427.52 230.891 1430.36 233.095 1430.36 236.78C1430.36 241.157 1426.55 243.739 1423.33 245.817C1419.49 248.336 1418.36 250.194 1418.3 251.139L1430.83 251.107V253.532H1415.21L1415.24 252.682ZM1441.82 254.004C1435.72 254.004 1433.39 249.218 1433.39 242.92V241.912C1433.39 235.583 1435.72 230.797 1441.82 230.797C1447.9 230.797 1450.2 235.583 1450.2 241.912V242.92C1450.2 249.218 1447.9 254.004 1441.82 254.004ZM1436.19 242.983C1436.19 248.525 1437.89 251.737 1441.82 251.737C1445.73 251.737 1447.4 248.525 1447.4 242.983V241.818C1447.4 236.307 1445.73 233.064 1441.82 233.064C1437.89 233.064 1436.19 236.307 1436.19 241.818V242.983Z" fill="white"/>
<circle cx="1476.09" cy="242.936" r="18.1064" fill="white"/>
<path d="M1476.09 231.915L1476.09 253.957" stroke="#FF9330" stroke-width="3.14894"/>
<path d="M1465.07 242.936L1487.11 242.936" stroke="#FF9330" stroke-width="3.14894"/>
<path d="M1176.11 328L1192.25 350.851L1239.48 354L1271.76 333.532L1264.67 293.383L1242.23 286.298L1209.17 293.383H1176.11L1176.11 328Z" fill="black"/>
<path d="M1205.21 332.036C1200.21 332.036 1197.06 329.548 1197.06 325.643C1197.06 322.778 1198.76 320.574 1201.78 319.755V319.314C1199.26 318.558 1197.85 316.732 1197.85 314.37C1197.85 310.938 1200.68 308.797 1205.21 308.797C1209.72 308.797 1212.55 310.938 1212.55 314.37C1212.55 316.732 1211.17 318.59 1208.65 319.314V319.755C1211.67 320.574 1213.34 322.778 1213.34 325.643C1213.34 329.58 1210.19 332.036 1205.21 332.036ZM1199.89 325.171C1199.89 327.942 1201.94 329.674 1205.21 329.674C1208.46 329.674 1210.54 327.942 1210.54 325.171C1210.54 322.4 1208.46 320.668 1205.21 320.668C1201.94 320.668 1199.89 322.4 1199.89 325.171ZM1200.55 314.811C1200.55 317.11 1202.35 318.59 1205.18 318.59C1208.05 318.59 1209.84 317.11 1209.84 314.811C1209.84 312.481 1208.05 311.064 1205.21 311.064C1202.35 311.064 1200.55 312.481 1200.55 314.811Z" fill="white"/>
<circle cx="1239.09" cy="320.936" r="18.1064" fill="white"/>
<path d="M1239.09 309.915L1239.09 331.957" stroke="#FF9330" stroke-width="3.14894"/>
<path d="M1228.07 320.936L1250.11 320.936" stroke="#FF9330" stroke-width="3.14894"/>
<path d="M1289.73 345V329.79H1296.66C1299.84 329.79 1301.61 331.17 1301.61 333.57C1301.61 335.31 1300.71 336.48 1298.64 336.9V337.32C1301.13 337.65 1302.39 338.82 1302.39 341.01C1302.39 343.35 1300.95 345 1297.77 345H1289.73ZM1292.34 342.99H1296.72C1298.67 342.99 1299.75 342.33 1299.75 340.65C1299.75 338.97 1298.64 338.16 1296.72 338.16H1292.34V342.99ZM1292.34 336.39H1296.12C1298.01 336.39 1299.09 335.61 1299.09 333.99C1299.09 332.55 1298.1 331.8 1296.12 331.8H1292.34V336.39ZM1312.6 345.45C1308.04 345.45 1304.98 342.21 1304.98 337.41V337.11C1304.98 332.46 1308.04 329.34 1312.6 329.34C1317.19 329.34 1320.31 332.46 1320.31 337.08V337.38C1320.31 342.21 1317.19 345.45 1312.6 345.45ZM1307.56 337.29C1307.56 341.1 1309.45 343.35 1312.63 343.32C1315.81 343.32 1317.73 341.07 1317.73 337.26C1317.73 333.6 1315.81 331.47 1312.63 331.47C1309.45 331.47 1307.56 333.6 1307.56 337.29ZM1321.69 349.2V342.87H1323.52C1325.83 338.76 1326.22 334.14 1326.46 329.79H1337.02V342.87H1339.09V349.2H1336.48V345H1324.3V349.2H1321.69ZM1326.43 342.87H1334.44V331.92H1328.86C1328.53 336.9 1327.69 340.11 1326.43 342.57V342.87ZM1345.97 345.42C1342.67 345.42 1340.75 343.68 1340.75 340.68C1340.75 337.23 1343.18 335.7 1347.44 335.46C1348.73 335.37 1350.17 335.31 1351.28 335.28C1351.25 332.49 1350.29 331.62 1347.38 331.62C1345.88 331.62 1344.11 331.83 1341.83 332.31V330.12C1343.78 329.67 1345.34 329.43 1347.38 329.43C1351.85 329.43 1353.83 330.87 1353.83 335.28V345H1351.28V342.84H1350.95C1349.99 344.43 1348.46 345.42 1345.97 345.42ZM1343.33 340.62C1343.36 342.3 1344.59 343.38 1346.54 343.38C1348.88 343.38 1350.68 341.91 1351.28 339.75V337.23C1350.32 337.26 1349.12 337.32 1347.77 337.44C1344.89 337.68 1343.33 338.67 1343.33 340.62ZM1371.08 345.45C1366.49 345.45 1363.43 342.21 1363.43 337.38V337.08C1363.43 332.46 1366.49 329.34 1371.08 329.34C1374.98 329.34 1377.83 331.62 1378.1 334.95H1375.58C1375.28 332.85 1373.54 331.47 1371.08 331.47C1367.93 331.47 1366.01 333.66 1366.01 337.26C1366.01 341.01 1367.93 343.32 1371.08 343.32C1373.63 343.32 1375.43 341.82 1375.73 339.48H1378.25C1377.86 343.05 1374.98 345.45 1371.08 345.45ZM1388.02 345V329.79H1401.4V345H1398.88V331.92H1390.6V345H1388.02ZM1412.18 345.48C1407.59 345.48 1404.5 342.24 1404.5 337.41V337.14C1404.5 332.49 1407.5 329.34 1411.94 329.34C1416.59 329.34 1419.29 332.58 1419.17 338.07H1407.05C1407.29 341.55 1409.3 343.38 1412.12 343.38C1414.61 343.38 1416.44 342.15 1416.83 340.11H1419.29C1418.84 343.32 1415.99 345.45 1412.18 345.48ZM1407.11 336.03H1416.53C1416.38 333.12 1414.67 331.41 1411.97 331.41C1409.3 331.41 1407.5 333.12 1407.11 336.03ZM1422.38 351V329.79H1424.99V332.34H1425.29C1425.77 330.75 1427.45 329.43 1430.18 329.43C1434.23 329.43 1436.96 332.52 1436.96 337.08V337.71C1436.96 342.3 1434.23 345.39 1430.18 345.39C1427.45 345.39 1425.89 344.1 1425.29 342.69H1424.99V351H1422.38ZM1425.02 337.38C1425.02 341.1 1426.7 343.29 1429.64 343.29C1432.61 343.29 1434.38 341.1 1434.38 337.38C1434.38 333.69 1432.61 331.5 1429.64 331.5C1426.7 331.5 1425.02 333.69 1425.02 337.38ZM1452.59 348.18V345H1440.05V329.79H1442.57V342.87H1450.82V329.79H1453.4V342.87H1455.17V348.18H1452.59ZM1464.89 345.48C1460.3 345.48 1457.21 342.24 1457.21 337.41V337.14C1457.21 332.49 1460.21 329.34 1464.65 329.34C1469.3 329.34 1472 332.58 1471.88 338.07H1459.76C1460 341.55 1462.01 343.38 1464.83 343.38C1467.32 343.38 1469.15 342.15 1469.54 340.11H1472C1471.55 343.32 1468.7 345.45 1464.89 345.48ZM1459.82 336.03H1469.24C1469.09 333.12 1467.38 331.41 1464.68 331.41C1462.01 331.41 1460.21 333.12 1459.82 336.03ZM1475.09 345V329.79H1479.68C1481.33 334.17 1482.56 337.89 1484.09 343.05H1484.69C1486.22 337.89 1487.45 334.17 1489.13 329.79H1493.63V345H1491.05C1491.05 340.92 1491.08 336.81 1491.29 331.74H1490.69C1489.13 336.12 1487.75 340.41 1486.22 345H1482.5C1481 340.44 1479.59 336.12 1478 331.74H1477.4C1477.61 336.81 1477.64 340.92 1477.64 345H1475.09Z" fill="white"/>
<path d="M588.282 374V358.79H595.212C598.392 358.79 600.162 360.17 600.162 362.57C600.162 364.31 599.262 365.48 597.192 365.9V366.32C599.682 366.65 600.942 367.82 600.942 370.01C600.942 372.35 599.502 374 596.322 374H588.282ZM590.892 371.99H595.272C597.222 371.99 598.302 371.33 598.302 369.65C598.302 367.97 597.192 367.16 595.272 367.16H590.892V371.99ZM590.892 365.39H594.672C596.562 365.39 597.642 364.61 597.642 362.99C597.642 361.55 596.652 360.8 594.672 360.8H590.892V365.39ZM610.104 374.45C605.634 374.45 603.534 372.11 603.534 368.57H605.814C605.904 371.21 607.374 372.41 610.044 372.44C612.354 372.44 614.004 371.63 614.004 369.77C614.004 367.94 612.474 367.16 608.184 367.07V365.15C612.324 365.15 613.344 364.16 613.344 362.75C613.344 361.19 612.084 360.38 610.014 360.38C607.464 360.35 606.204 361.58 606.084 363.83H603.804C603.864 360.32 606.204 358.34 610.074 358.34C613.764 358.34 615.744 360.17 615.744 362.39C615.744 363.95 614.814 365.27 612.714 365.81V366.26C615.084 366.62 616.524 367.91 616.524 369.98C616.524 372.68 614.094 374.48 610.104 374.45ZM619.512 380V358.79H622.122V361.34H622.422C622.902 359.75 624.582 358.43 627.312 358.43C631.362 358.43 634.092 361.52 634.092 366.08V366.71C634.092 371.3 631.362 374.39 627.312 374.39C624.582 374.39 623.022 373.1 622.422 371.69H622.122V380H619.512ZM622.152 366.38C622.152 370.1 623.832 372.29 626.772 372.29C629.742 372.29 631.512 370.1 631.512 366.38C631.512 362.69 629.742 360.5 626.772 360.5C623.832 360.5 622.152 362.69 622.152 366.38ZM651.939 374V358.79H654.489V374H651.939ZM637.149 374V358.79H639.759V364.34H644.409C647.949 364.34 649.929 366.08 649.929 369.17C649.929 372.29 647.949 374 644.409 374H637.149ZM639.759 371.9H644.169C646.269 371.9 647.379 370.97 647.379 369.17C647.379 367.4 646.269 366.44 644.169 366.44H639.759V371.9ZM658.038 374V358.79H664.968C668.148 358.79 669.918 360.17 669.918 362.57C669.918 364.31 669.018 365.48 666.948 365.9V366.32C669.438 366.65 670.698 367.82 670.698 370.01C670.698 372.35 669.258 374 666.078 374H658.038ZM660.648 371.99H665.028C666.978 371.99 668.058 371.33 668.058 369.65C668.058 367.97 666.948 367.16 665.028 367.16H660.648V371.99ZM660.648 365.39H664.428C666.318 365.39 667.398 364.61 667.398 362.99C667.398 361.55 666.408 360.8 664.428 360.8H660.648V365.39Z" fill="white"/>
<path d="M683.48 342.128L710.246 322.447L757.48 319.298L789.757 339.766L782.672 379.915L760.236 387L727.172 379.915H694.108L683.48 342.128Z" fill="#FF9330"/>
<path d="M708.564 364.532V348.031L703.651 348.063V346.016C707.398 346.016 708.658 345.575 708.784 342.269H711.303V364.532H708.564ZM723.019 365.004C717.949 365.004 714.58 361.54 714.643 353.511C714.706 345.796 718.075 341.797 724.247 341.797C725.821 341.797 727.774 341.985 729.38 342.458V344.882C727.113 344.316 725.507 344.221 724.31 344.221C719.24 344.347 717.004 347.685 717.004 354.109L717.414 354.172C718.547 351.621 720.815 350.299 723.775 350.299C727.9 350.299 730.734 353.196 730.734 357.51C730.734 361.981 727.616 365.004 723.019 365.004ZM717.981 357.762C717.981 360.879 719.964 362.768 723.019 362.768C726.073 362.768 728.089 360.785 728.089 357.604C728.089 354.518 726.136 352.597 723.145 352.597C719.996 352.597 717.981 354.613 717.981 357.762Z" fill="white"/>
<circle cx="757.087" cy="353.936" r="18.1064" fill="white"/>
<path d="M757.086 342.915L757.086 364.957" stroke="black" stroke-width="3.14894"/>
<path d="M746.066 353.936L768.109 353.936" stroke="black" stroke-width="3.14894"/>
<path d="M581 420.5L610.5 410L651.48 404.298L683.757 424.766L676.672 464.915L651.48 481L610.5 472L574.5 459L581 420.5Z" fill="#FF9330"/>
<path d="M590.241 448.682C590.304 445.785 592.036 443.077 596.318 440.148C600.192 437.471 602.616 435.582 602.616 432.842C602.616 430.418 600.79 429.127 598.113 429.127C595.216 429.127 593.075 430.607 592.949 434.354H590.367C590.398 429.505 593.264 426.891 598.113 426.891C602.522 426.891 605.356 429.095 605.356 432.78C605.356 437.157 601.546 439.739 598.334 441.817C594.492 444.336 593.358 446.194 593.295 447.139L605.828 447.107V449.532H590.209L590.241 448.682ZM616.825 450.004C610.716 450.004 608.386 445.218 608.386 438.92V437.912C608.386 431.583 610.716 426.797 616.825 426.797C622.902 426.797 625.201 431.583 625.201 437.912V438.92C625.201 445.218 622.902 450.004 616.825 450.004ZM611.188 438.983C611.188 444.525 612.889 447.737 616.825 447.737C620.729 447.737 622.398 444.525 622.398 438.983V437.818C622.398 432.307 620.729 429.064 616.825 429.064C612.889 429.064 611.188 432.307 611.188 437.818V438.983Z" fill="white"/>
<circle cx="651.087" cy="438.936" r="18.1064" fill="white"/>
<path d="M651.086 427.915L651.086 449.957" stroke="black" stroke-width="3.14894"/>
<path d="M640.066 438.936L662.109 438.936" stroke="black" stroke-width="3.14894"/>
<path d="M708.897 463.45C704.307 463.45 701.247 460.21 701.247 455.38V455.08C701.247 450.46 704.307 447.34 708.897 447.34C712.797 447.34 715.647 449.62 715.917 452.95H713.397C713.097 450.85 711.357 449.47 708.897 449.47C705.747 449.47 703.827 451.66 703.827 455.26C703.827 459.01 705.747 461.32 708.897 461.32C711.447 461.32 713.247 459.82 713.547 457.48H716.067C715.677 461.05 712.797 463.45 708.897 463.45ZM719.129 463V447.79H721.739C721.739 451.78 721.619 457.06 721.289 461.11H721.889C723.689 457.12 726.629 451.84 728.849 447.79H732.959V463H730.379C730.379 459.01 730.469 453.73 730.799 449.68H730.199C728.309 453.76 725.369 459.01 723.209 463H719.129ZM736.532 463V447.79H746.312V449.92H739.142V463H736.532ZM748.778 463V447.79H751.358V453.97H759.578V447.79H762.098V463H759.578V456.1H751.358V463H748.778ZM770.332 463.42C767.032 463.42 765.112 461.68 765.112 458.68C765.112 455.23 767.542 453.7 771.802 453.46C773.092 453.37 774.532 453.31 775.642 453.28C775.612 450.49 774.652 449.62 771.742 449.62C770.242 449.62 768.472 449.83 766.192 450.31V448.12C768.142 447.67 769.702 447.43 771.742 447.43C776.212 447.43 778.192 448.87 778.192 453.28V463H775.642V460.84H775.312C774.352 462.43 772.822 463.42 770.332 463.42ZM767.692 458.62C767.722 460.3 768.952 461.38 770.902 461.38C773.242 461.38 775.042 459.91 775.642 457.75V455.23C774.682 455.26 773.482 455.32 772.132 455.44C769.252 455.68 767.692 456.67 767.692 458.62ZM780.631 463V460.9H781.351C782.911 460.9 783.781 460.15 784.261 456.94C784.801 453.28 784.831 450.94 784.981 447.79H795.901V463H793.321V449.89H787.321C787.231 451.99 787.051 454.3 786.751 456.85C786.181 461.74 784.561 463 781.681 463H780.631ZM799.461 463V447.79H802.071C802.071 451.78 801.951 457.06 801.621 461.11H802.221C804.021 457.12 806.961 451.84 809.181 447.79H813.291V463H810.711C810.711 459.01 810.801 453.73 811.131 449.68H810.531C808.641 453.76 805.701 459.01 803.541 463H799.461ZM822.954 463.45C818.484 463.45 816.384 461.11 816.384 457.57H818.664C818.754 460.21 820.224 461.41 822.894 461.44C825.204 461.44 826.854 460.63 826.854 458.77C826.854 456.94 825.324 456.16 821.034 456.07V454.15C825.174 454.15 826.194 453.16 826.194 451.75C826.194 450.19 824.934 449.38 822.864 449.38C820.314 449.35 819.054 450.58 818.934 452.83H816.654C816.714 449.32 819.054 447.34 822.924 447.34C826.614 447.34 828.594 449.17 828.594 451.39C828.594 452.95 827.664 454.27 825.564 454.81V455.26C827.934 455.62 829.374 456.91 829.374 458.98C829.374 461.68 826.944 463.48 822.954 463.45ZM837.012 463.42C833.712 463.42 831.792 461.68 831.792 458.68C831.792 455.23 834.222 453.7 838.482 453.46C839.772 453.37 841.212 453.31 842.322 453.28C842.292 450.49 841.332 449.62 838.422 449.62C836.922 449.62 835.152 449.83 832.872 450.31V448.12C834.822 447.67 836.382 447.43 838.422 447.43C842.892 447.43 844.872 448.87 844.872 453.28V463H842.322V460.84H841.992C841.032 462.43 839.502 463.42 837.012 463.42ZM834.372 458.62C834.402 460.3 835.632 461.38 837.582 461.38C839.922 461.38 841.722 459.91 842.322 457.75V455.23C841.362 455.26 840.162 455.32 838.812 455.44C835.932 455.68 834.372 456.67 834.372 458.62ZM860.811 466.18V463H848.271V447.79H850.791V460.87H859.041V447.79H861.621V460.87H863.391V466.18H860.811ZM865.907 463V447.79H868.517C868.517 451.78 868.397 457.06 868.067 461.11H868.667C870.467 457.12 873.407 451.84 875.627 447.79H879.737V463H877.157C877.157 459.01 877.247 453.73 877.577 449.68H876.977C875.087 453.76 872.147 459.01 869.987 463H865.907ZM882.409 462.7C883.399 460.45 882.619 456.22 886.459 455.77V455.53C884.389 455.26 882.859 453.85 882.859 451.6C882.859 449.11 884.749 447.4 888.079 447.4H895.579V463H892.969V456.55H888.709C885.379 456.55 886.189 461.35 885.169 463H882.409V462.7ZM885.499 452.02C885.499 453.58 886.699 454.57 888.739 454.57H892.969V449.53H888.739C886.699 449.53 885.499 450.43 885.499 452.02Z" fill="white"/>
<path d="M564.233 530V514.79H577.613V530H575.093V516.92H566.813V530H564.233ZM588.396 530.48C583.806 530.48 580.716 527.24 580.716 522.41V522.14C580.716 517.49 583.716 514.34 588.156 514.34C592.806 514.34 595.506 517.58 595.386 523.07H583.266C583.506 526.55 585.516 528.38 588.336 528.38C590.826 528.38 592.656 527.15 593.046 525.11H595.506C595.056 528.32 592.206 530.45 588.396 530.48ZM583.326 521.03H592.746C592.596 518.12 590.886 516.41 588.186 516.41C585.516 516.41 583.716 518.12 583.326 521.03ZM598.598 530V514.79H611.978V530H609.458V516.92H601.178V530H598.598ZM615.561 530V514.79H628.941V530H626.421V516.92H618.141V530H615.561ZM639.724 530.48C635.134 530.48 632.044 527.24 632.044 522.41V522.14C632.044 517.49 635.044 514.34 639.484 514.34C644.134 514.34 646.834 517.58 646.714 523.07H634.594C634.834 526.55 636.844 528.38 639.664 528.38C642.154 528.38 643.984 527.15 644.374 525.11H646.834C646.384 528.32 643.534 530.45 639.724 530.48ZM634.654 521.03H644.074C643.924 518.12 642.214 516.41 639.514 516.41C636.844 516.41 635.044 518.12 634.654 521.03ZM649.926 536V514.79H652.536V517.34H652.836C653.316 515.75 654.996 514.43 657.726 514.43C661.776 514.43 664.506 517.52 664.506 522.08V522.71C664.506 527.3 661.776 530.39 657.726 530.39C654.996 530.39 653.436 529.1 652.836 527.69H652.536V536H649.926ZM652.566 522.38C652.566 526.1 654.246 528.29 657.186 528.29C660.156 528.29 661.926 526.1 661.926 522.38C661.926 518.69 660.156 516.5 657.186 516.5C654.246 516.5 652.566 518.69 652.566 522.38ZM674.703 530.45C670.143 530.45 667.083 527.21 667.083 522.41V522.11C667.083 517.46 670.143 514.34 674.703 514.34C679.293 514.34 682.413 517.46 682.413 522.08V522.38C682.413 527.21 679.293 530.45 674.703 530.45ZM669.663 522.29C669.663 526.1 671.553 528.35 674.733 528.32C677.913 528.32 679.833 526.07 679.833 522.26C679.833 518.6 677.913 516.47 674.733 516.47C671.553 516.47 669.663 518.6 669.663 522.29ZM685.463 530V514.79H688.043V520.97H696.263V514.79H698.783V530H696.263V523.1H688.043V530H685.463ZM702.368 530V514.79H704.978C704.978 518.78 704.858 524.06 704.528 528.11H705.128C706.928 524.12 709.868 518.84 712.088 514.79H716.198V530H713.618C713.618 526.01 713.708 520.73 714.038 516.68H713.438C711.548 520.76 708.608 526.01 706.448 530H702.368Z" fill="white"/>
<path d="M740.105 517L756.245 539.851L803.479 543L835.756 522.532L828.671 482.383L806.234 475.298L773.171 482.383H740.107L740.105 517Z" fill="#FF9330"/>
<path d="M769.214 521.036C764.207 521.036 761.058 518.548 761.058 514.643C761.058 511.778 762.759 509.574 765.782 508.755V508.314C763.263 507.558 761.846 505.732 761.846 503.37C761.846 499.938 764.68 497.797 769.214 497.797C773.717 497.797 776.551 499.938 776.551 503.37C776.551 505.732 775.166 507.59 772.647 508.314V508.755C775.67 509.574 777.338 511.778 777.338 514.643C777.338 518.58 774.19 521.036 769.214 521.036ZM763.893 514.171C763.893 516.942 765.939 518.674 769.214 518.674C772.458 518.674 774.536 516.942 774.536 514.171C774.536 511.4 772.458 509.668 769.214 509.668C765.939 509.668 763.893 511.4 763.893 514.171ZM764.554 503.811C764.554 506.11 766.349 507.59 769.183 507.59C772.048 507.59 773.843 506.11 773.843 503.811C773.843 501.481 772.048 500.064 769.214 500.064C766.349 500.064 764.554 501.481 764.554 503.811Z" fill="white"/>
<circle cx="803.087" cy="509.936" r="18.1064" fill="white"/>
<path d="M803.086 498.915L803.086 520.957" stroke="black" stroke-width="3.14894"/>
<path d="M792.066 509.936L814.109 509.936" stroke="black" stroke-width="3.14894"/>
<path d="M1303.7 419L1297.73 412.37H1296.29V419H1293.68V403.79H1296.29V410.24H1297.64L1303.31 403.79H1306.37L1299.65 411.23L1307 419H1303.7ZM1315.5 419.48C1310.91 419.48 1307.82 416.24 1307.82 411.41V411.14C1307.82 406.49 1310.82 403.34 1315.26 403.34C1319.91 403.34 1322.61 406.58 1322.49 412.07H1310.37C1310.61 415.55 1312.62 417.38 1315.44 417.38C1317.93 417.38 1319.76 416.15 1320.15 414.11H1322.61C1322.16 417.32 1319.31 419.45 1315.5 419.48ZM1310.43 410.03H1319.85C1319.7 407.12 1317.99 405.41 1315.29 405.41C1312.62 405.41 1310.82 407.12 1310.43 410.03ZM1333.59 425V419.45C1327.92 419.18 1325.22 416.27 1325.22 411.35C1325.22 406.43 1327.92 403.61 1333.59 403.37V397.4H1336.2V403.37C1341.84 403.61 1344.66 406.46 1344.66 411.35C1344.66 416.24 1341.84 419.18 1336.2 419.45V425H1333.59ZM1327.74 411.35C1327.74 415.01 1329.75 417.05 1333.59 417.29V405.5C1329.75 405.77 1327.74 407.69 1327.74 411.35ZM1336.2 417.29C1340.07 417.05 1342.11 415.01 1342.11 411.35C1342.11 407.69 1340.1 405.74 1336.2 405.5V417.29ZM1347.73 419V403.79H1350.34C1350.34 407.78 1350.22 413.06 1349.89 417.11H1350.49C1352.29 413.12 1355.23 407.84 1357.45 403.79H1361.56V419H1358.98C1358.98 415.01 1359.07 409.73 1359.4 405.68H1358.8C1356.91 409.76 1353.97 415.01 1351.81 419H1347.73ZM1365.13 425V403.79H1367.74V406.34H1368.04C1368.52 404.75 1370.2 403.43 1372.93 403.43C1376.98 403.43 1379.71 406.52 1379.71 411.08V411.71C1379.71 416.3 1376.98 419.39 1372.93 419.39C1370.2 419.39 1368.64 418.1 1368.04 416.69H1367.74V425H1365.13ZM1367.77 411.38C1367.77 415.1 1369.45 417.29 1372.39 417.29C1375.36 417.29 1377.13 415.1 1377.13 411.38C1377.13 407.69 1375.36 405.5 1372.39 405.5C1369.45 405.5 1367.77 407.69 1367.77 411.38Z" fill="white"/>
<path d="M1392.07 389.489L1418.83 369.808L1466.07 366.66L1498.34 387.128L1491.26 427.277L1468.82 434.362H1430.5L1402.69 427.277L1392.07 389.489Z" fill="black"/>
<path d="M1419.06 409.532V393.031L1414.14 393.063V391.016C1417.89 391.016 1419.15 390.575 1419.28 387.269H1421.8V409.532H1419.06ZM1425.17 408.682C1425.23 405.785 1426.96 403.077 1431.25 400.148C1435.12 397.471 1437.54 395.582 1437.54 392.842C1437.54 390.418 1435.72 389.127 1433.04 389.127C1430.14 389.127 1428 390.607 1427.88 394.354H1425.29C1425.33 389.505 1428.19 386.891 1433.04 386.891C1437.45 386.891 1440.28 389.095 1440.28 392.78C1440.28 397.157 1436.47 399.739 1433.26 401.817C1429.42 404.336 1428.29 406.194 1428.22 407.139L1440.75 407.107V409.532H1425.14L1425.17 408.682Z" fill="white"/>
<circle cx="1466.09" cy="398.936" r="18.1064" fill="white"/>
<path d="M1466.09 387.915L1466.09 409.957" stroke="#FF9330" stroke-width="3.14894"/>
<path d="M1455.07 398.936L1477.11 398.936" stroke="#FF9330" stroke-width="3.14894"/>
<path d="M625.731 105V89.79H639.111V105H636.591V91.92H628.311V105H625.731ZM647.344 105.42C644.044 105.42 642.124 103.68 642.124 100.68C642.124 97.23 644.554 95.7 648.814 95.46C650.104 95.37 651.544 95.31 652.654 95.28C652.624 92.49 651.664 91.62 648.754 91.62C647.254 91.62 645.484 91.83 643.204 92.31V90.12C645.154 89.67 646.714 89.43 648.754 89.43C653.224 89.43 655.204 90.87 655.204 95.28V105H652.654V102.84H652.324C651.364 104.43 649.834 105.42 647.344 105.42ZM644.704 100.62C644.734 102.3 645.964 103.38 647.914 103.38C650.254 103.38 652.054 101.91 652.654 99.75V97.23C651.694 97.26 650.494 97.32 649.144 97.44C646.264 97.68 644.704 98.67 644.704 100.62ZM665.743 105.45C661.153 105.45 658.093 102.21 658.093 97.38V97.08C658.093 92.46 661.153 89.34 665.743 89.34C669.643 89.34 672.493 91.62 672.763 94.95H670.243C669.943 92.85 668.203 91.47 665.743 91.47C662.593 91.47 660.673 93.66 660.673 97.26C660.673 101.01 662.593 103.32 665.743 103.32C668.293 103.32 670.093 101.82 670.393 99.48H672.913C672.523 103.05 669.643 105.45 665.743 105.45ZM679.474 105V91.92H673.864V89.79H687.634V91.92H682.024V105H679.474ZM694.541 105.42C691.241 105.42 689.321 103.68 689.321 100.68C689.321 97.23 691.751 95.7 696.011 95.46C697.301 95.37 698.741 95.31 699.851 95.28C699.821 92.49 698.861 91.62 695.951 91.62C694.451 91.62 692.681 91.83 690.401 92.31V90.12C692.351 89.67 693.911 89.43 695.951 89.43C700.421 89.43 702.401 90.87 702.401 95.28V105H699.851V102.84H699.521C698.561 104.43 697.031 105.42 694.541 105.42ZM691.901 100.62C691.931 102.3 693.161 103.38 695.111 103.38C697.451 103.38 699.251 101.91 699.851 99.75V97.23C698.891 97.26 697.691 97.32 696.341 97.44C693.461 97.68 691.901 98.67 691.901 100.62Z" fill="black"/>
<path d="M723.09 106.973C718.147 106.973 715.092 104.107 715.029 99.4784H717.548C717.706 102.722 719.878 104.706 723.279 104.737C726.113 104.737 728.381 103.257 728.381 100.423C728.381 97.463 725.893 95.983 720.918 95.8886V93.7158C725.421 93.6528 727.467 92.2358 727.467 89.8426C727.467 87.5124 725.547 86.0639 722.933 86.0639C719.878 86.0639 717.863 88.1422 717.737 91.2911H715.218C715.25 86.8196 718.21 83.7967 722.933 83.7967C727.058 83.7967 730.113 86.1584 730.113 89.5277C730.113 92.0154 728.412 93.9992 725.421 94.4086V94.9754C728.916 95.2588 731.12 97.3686 731.12 100.549C731.12 104.454 727.719 106.973 723.09 106.973ZM733.731 105.682C733.794 102.785 735.526 100.077 739.809 97.1482C743.682 94.4716 746.106 92.5822 746.106 89.8426C746.106 87.4179 744.28 86.1269 741.603 86.1269C738.706 86.1269 736.565 87.6069 736.439 91.3541H733.857C733.889 86.5047 736.754 83.8911 741.603 83.8911C746.012 83.8911 748.846 86.0954 748.846 89.7796C748.846 94.1567 745.036 96.7388 741.824 98.8171C737.982 101.336 736.849 103.194 736.786 104.139L749.318 104.107V106.532H733.7L733.731 105.682Z" fill="#FF9330"/>
<path d="M812.684 154V138.79H822.464V140.92H815.294V154H812.684ZM831.426 154.45C826.866 154.45 823.806 151.21 823.806 146.41V146.11C823.806 141.46 826.866 138.34 831.426 138.34C836.016 138.34 839.136 141.46 839.136 146.08V146.38C839.136 151.21 836.016 154.45 831.426 154.45ZM826.386 146.29C826.386 150.1 828.276 152.35 831.456 152.32C834.636 152.32 836.556 150.07 836.556 146.26C836.556 142.6 834.636 140.47 831.456 140.47C828.276 140.47 826.386 142.6 826.386 146.29ZM842.186 160V138.79H844.796V141.34H845.096C845.576 139.75 847.256 138.43 849.986 138.43C854.036 138.43 856.766 141.52 856.766 146.08V146.71C856.766 151.3 854.036 154.39 849.986 154.39C847.256 154.39 845.696 153.1 845.096 151.69H844.796V160H842.186ZM844.826 146.38C844.826 150.1 846.506 152.29 849.446 152.29C852.416 152.29 854.186 150.1 854.186 146.38C854.186 142.69 852.416 140.5 849.446 140.5C846.506 140.5 844.826 142.69 844.826 146.38ZM864.327 148.3C860.637 148.33 859.077 146.89 859.077 143.65V138.79H861.657V142.87C861.657 145.48 862.347 146.2 864.867 146.17C866.097 146.17 867.357 146.02 868.557 145.78V138.79H871.167V154H868.557V147.67C867.177 148.03 865.707 148.27 864.327 148.3ZM874.706 154V138.79H877.316C877.316 142.78 877.196 148.06 876.866 152.11H877.466C879.266 148.12 882.206 142.84 884.426 138.79H888.536V154H885.956C885.956 150.01 886.046 144.73 886.376 140.68H885.776C883.886 144.76 880.946 150.01 878.786 154H874.706ZM904.678 157.18V154H892.138V138.79H894.658V151.87H902.908V138.79H905.488V151.87H907.258V157.18H904.678ZM914.541 154.42C911.241 154.42 909.321 152.68 909.321 149.68C909.321 146.23 911.751 144.7 916.011 144.46C917.301 144.37 918.741 144.31 919.851 144.28C919.821 141.49 918.861 140.62 915.951 140.62C914.451 140.62 912.681 140.83 910.401 141.31V139.12C912.351 138.67 913.911 138.43 915.951 138.43C920.421 138.43 922.401 139.87 922.401 144.28V154H919.851V151.84H919.521C918.561 153.43 917.031 154.42 914.541 154.42ZM911.901 149.62C911.931 151.3 913.161 152.38 915.111 152.38C917.451 152.38 919.251 150.91 919.851 148.75V146.23C918.891 146.26 917.691 146.32 916.341 146.44C913.461 146.68 911.901 147.67 911.901 149.62Z" fill="black"/>
<path d="M938.794 158V141.5L933.882 141.531V139.484C937.629 139.484 938.889 139.043 939.014 135.737H941.534V158H938.794ZM953.249 158.472C948.18 158.472 944.81 155.009 944.873 146.979C944.936 139.264 948.306 135.265 954.477 135.265C956.052 135.265 958.004 135.454 959.61 135.926V138.351C957.343 137.784 955.737 137.689 954.54 137.689C949.471 137.815 947.235 141.153 947.235 147.577L947.644 147.64C948.778 145.089 951.045 143.767 954.005 143.767C958.13 143.767 960.964 146.664 960.964 150.978C960.964 155.449 957.847 158.472 953.249 158.472ZM948.211 151.23C948.211 154.347 950.195 156.237 953.249 156.237C956.304 156.237 958.319 154.253 958.319 151.072C958.319 147.986 956.367 146.066 953.375 146.066C950.226 146.066 948.211 148.081 948.211 151.23Z" fill="#FF9330"/>
<path d="M676.48 248.15C676.543 245.253 678.275 242.545 682.557 239.616C686.431 236.94 688.855 235.05 688.855 232.311C688.855 229.886 687.029 228.595 684.352 228.595C681.455 228.595 679.314 230.075 679.188 233.822H676.606C676.637 228.973 679.503 226.359 684.352 226.359C688.761 226.359 691.595 228.563 691.595 232.248C691.595 236.625 687.785 239.207 684.573 241.285C680.731 243.804 679.597 245.662 679.534 246.607L692.067 246.575V249H676.449L676.48 248.15ZM695.3 248.15C695.363 245.253 697.095 242.545 701.377 239.616C705.25 236.94 707.675 235.05 707.675 232.311C707.675 229.886 705.849 228.595 703.172 228.595C700.275 228.595 698.134 230.075 698.008 233.822H695.426C695.457 228.973 698.323 226.359 703.172 226.359C707.581 226.359 710.415 228.563 710.415 232.248C710.415 236.625 706.604 239.207 703.393 241.285C699.551 243.804 698.417 245.662 698.354 246.607L710.887 246.575V249H695.268L695.3 248.15Z" fill="#FF9330"/>
<path d="M771.77 249V233.79H785.15V249H782.63V235.92H774.35V249H771.77ZM801.783 249.45C797.403 249.45 794.403 246.6 794.043 242.28H791.343V249H788.733V233.79H791.343V240.15H794.043C794.463 236.04 797.463 233.34 801.783 233.34C806.493 233.34 809.643 236.46 809.643 241.08V241.38C809.643 246.21 806.493 249.45 801.783 249.45ZM796.593 241.29C796.593 245.1 798.543 247.35 801.813 247.32C805.113 247.32 807.063 245.07 807.063 241.26C807.063 237.63 805.113 235.47 801.813 235.47C798.543 235.47 796.593 237.63 796.593 241.29ZM812.698 255V233.79H815.308V236.34H815.608C816.088 234.75 817.768 233.43 820.498 233.43C824.548 233.43 827.278 236.52 827.278 241.08V241.71C827.278 246.3 824.548 249.39 820.498 249.39C817.768 249.39 816.208 248.1 815.608 246.69H815.308V255H812.698ZM815.338 241.38C815.338 245.1 817.018 247.29 819.958 247.29C822.928 247.29 824.698 245.1 824.698 241.38C824.698 237.69 822.928 235.5 819.958 235.5C817.018 235.5 815.338 237.69 815.338 241.38ZM837.534 249.48C832.944 249.48 829.854 246.24 829.854 241.41V241.14C829.854 236.49 832.854 233.34 837.294 233.34C841.944 233.34 844.644 236.58 844.524 242.07H832.404C832.644 245.55 834.654 247.38 837.474 247.38C839.964 247.38 841.794 246.15 842.184 244.11H844.644C844.194 247.32 841.344 249.45 837.534 249.48ZM832.464 240.03H841.884C841.734 237.12 840.024 235.41 837.324 235.41C834.654 235.41 832.854 237.12 832.464 240.03ZM847.737 249V233.79H850.317V246.87H857.037V233.79H859.647V246.87H866.367V233.79H868.917V249H847.737ZM882.513 249L876.543 242.37H875.103V249H872.493V233.79H875.103V240.24H876.453L882.123 233.79H885.183L878.463 241.23L885.813 249H882.513ZM891.557 249.42C888.257 249.42 886.337 247.68 886.337 244.68C886.337 241.23 888.767 239.7 893.027 239.46C894.317 239.37 895.757 239.31 896.867 239.28C896.837 236.49 895.877 235.62 892.967 235.62C891.467 235.62 889.697 235.83 887.417 236.31V234.12C889.367 233.67 890.927 233.43 892.967 233.43C897.437 233.43 899.417 234.87 899.417 239.28V249H896.867V246.84H896.537C895.577 248.43 894.047 249.42 891.557 249.42ZM888.917 244.62C888.947 246.3 890.177 247.38 892.127 247.38C894.467 247.38 896.267 245.91 896.867 243.75V241.23C895.907 241.26 894.707 241.32 893.357 241.44C890.477 241.68 888.917 242.67 888.917 244.62Z" fill="black"/>
<path d="M1042.3 442.45C1037.17 442.45 1034.35 438.55 1034.38 431.59C1034.44 424.21 1037.32 420.82 1043.35 420.82C1045.18 420.82 1046.56 420.82 1048.42 420.61V422.8C1046.5 423.1 1044.76 423.04 1043.5 423.1C1039.09 423.25 1036.72 424.54 1036.57 432.76L1036.93 432.85C1037.83 429.28 1039.87 427.75 1042.93 427.75C1047.16 427.75 1049.89 430.66 1049.89 434.95C1049.89 439.45 1046.83 442.45 1042.3 442.45ZM1037.74 435.28C1037.74 438.4 1039.51 440.35 1042.33 440.35C1045.42 440.35 1047.37 438.28 1047.37 435.04C1047.37 431.86 1045.54 429.88 1042.66 429.88C1039.63 429.88 1037.74 431.95 1037.74 435.28ZM1054.37 448.21C1053.68 448.21 1052.69 448.18 1051.64 448.09V446.02C1052.57 446.08 1053.56 446.11 1054.16 446.11C1055.87 446.08 1056.38 445.72 1056.92 444.67C1057.64 443.26 1057.52 442.87 1057.31 442.3L1050.98 426.79H1053.83C1055.48 431.14 1057.13 435.4 1058.78 440.17H1059.2C1060.73 435.4 1062.23 431.14 1063.76 426.79H1066.46L1060.46 442.84C1058.87 447.1 1057.82 448.18 1054.37 448.21ZM1073.48 442V428.92H1067.87V426.79H1081.64V428.92H1076.03V442H1073.48ZM1083.9 448V426.79H1086.51V429.34H1086.81C1087.29 427.75 1088.97 426.43 1091.7 426.43C1095.75 426.43 1098.48 429.52 1098.48 434.08V434.71C1098.48 439.3 1095.75 442.39 1091.7 442.39C1088.97 442.39 1087.41 441.1 1086.81 439.69H1086.51V448H1083.9ZM1086.54 434.38C1086.54 438.1 1088.22 440.29 1091.16 440.29C1094.13 440.29 1095.9 438.1 1095.9 434.38C1095.9 430.69 1094.13 428.5 1091.16 428.5C1088.22 428.5 1086.54 430.69 1086.54 434.38ZM1109.07 442.45C1103.94 442.45 1101.12 438.55 1101.15 431.59C1101.21 424.21 1104.09 420.82 1110.12 420.82C1111.95 420.82 1113.33 420.82 1115.19 420.61V422.8C1113.27 423.1 1111.53 423.04 1110.27 423.1C1105.86 423.25 1103.49 424.54 1103.34 432.76L1103.7 432.85C1104.6 429.28 1106.64 427.75 1109.7 427.75C1113.93 427.75 1116.66 430.66 1116.66 434.95C1116.66 439.45 1113.6 442.45 1109.07 442.45ZM1104.51 435.28C1104.51 438.4 1106.28 440.35 1109.1 440.35C1112.19 440.35 1114.14 438.28 1114.14 435.04C1114.14 431.86 1112.31 429.88 1109.43 429.88C1106.4 429.88 1104.51 431.95 1104.51 435.28ZM1119.58 448V426.79H1122.19V429.34H1122.49C1122.97 427.75 1124.65 426.43 1127.38 426.43C1131.43 426.43 1134.16 429.52 1134.16 434.08V434.71C1134.16 439.3 1131.43 442.39 1127.38 442.39C1124.65 442.39 1123.09 441.1 1122.49 439.69H1122.19V448H1119.58ZM1122.22 434.38C1122.22 438.1 1123.9 440.29 1126.84 440.29C1129.81 440.29 1131.58 438.1 1131.58 434.38C1131.58 430.69 1129.81 428.5 1126.84 428.5C1123.9 428.5 1122.22 430.69 1122.22 434.38ZM1144.36 442.45C1139.8 442.45 1136.74 439.21 1136.74 434.41V434.11C1136.74 429.46 1139.8 426.34 1144.36 426.34C1148.95 426.34 1152.07 429.46 1152.07 434.08V434.38C1152.07 439.21 1148.95 442.45 1144.36 442.45ZM1139.32 434.29C1139.32 438.1 1141.21 440.35 1144.39 440.32C1147.57 440.32 1149.49 438.07 1149.49 434.26C1149.49 430.6 1147.57 428.47 1144.39 428.47C1141.21 428.47 1139.32 430.6 1139.32 434.29ZM1153.45 446.2V439.87H1155.28C1157.59 435.76 1157.98 431.14 1158.22 426.79H1168.78V439.87H1170.85V446.2H1168.24V442H1156.06V446.2H1153.45ZM1158.19 439.87H1166.2V428.92H1160.62C1160.29 433.9 1159.45 437.11 1158.19 439.57V439.87Z" fill="black"/>
<path d="M1311.79 645L1305.82 638.37H1304.38V645H1301.77V629.79H1304.38V636.24H1305.73L1311.4 629.79H1314.46L1307.74 637.23L1315.09 645H1311.79ZM1323.53 645.45C1318.97 645.45 1315.91 642.21 1315.91 637.41V637.11C1315.91 632.46 1318.97 629.34 1323.53 629.34C1328.12 629.34 1331.24 632.46 1331.24 637.08V637.38C1331.24 642.21 1328.12 645.45 1323.53 645.45ZM1318.49 637.29C1318.49 641.1 1320.38 643.35 1323.56 643.32C1326.74 643.32 1328.66 641.07 1328.66 637.26C1328.66 633.6 1326.74 631.47 1323.56 631.47C1320.38 631.47 1318.49 633.6 1318.49 637.29ZM1334.29 645V629.79H1336.87V635.97H1345.09V629.79H1347.61V645H1345.09V638.1H1336.87V645H1334.29ZM1359.08 651V645.45C1353.41 645.18 1350.71 642.27 1350.71 637.35C1350.71 632.43 1353.41 629.61 1359.08 629.37V623.4H1361.69V629.37C1367.33 629.61 1370.15 632.46 1370.15 637.35C1370.15 642.24 1367.33 645.18 1361.69 645.45V651H1359.08ZM1353.23 637.35C1353.23 641.01 1355.24 643.05 1359.08 643.29V631.5C1355.24 631.77 1353.23 633.69 1353.23 637.35ZM1361.69 643.29C1365.56 643.05 1367.6 641.01 1367.6 637.35C1367.6 633.69 1365.59 631.74 1361.69 631.5V643.29ZM1380.43 645.48C1375.84 645.48 1372.75 642.24 1372.75 637.41V637.14C1372.75 632.49 1375.75 629.34 1380.19 629.34C1384.84 629.34 1387.54 632.58 1387.42 638.07H1375.3C1375.54 641.55 1377.55 643.38 1380.37 643.38C1382.86 643.38 1384.69 642.15 1385.08 640.11H1387.54C1387.09 643.32 1384.24 645.45 1380.43 645.48ZM1375.36 636.03H1384.78C1384.63 633.12 1382.92 631.41 1380.22 631.41C1377.55 631.41 1375.75 633.12 1375.36 636.03ZM1394.13 645V631.92H1388.52V629.79H1402.29V631.92H1396.68V645H1394.13ZM1409.19 645.42C1405.89 645.42 1403.97 643.68 1403.97 640.68C1403.97 637.23 1406.4 635.7 1410.66 635.46C1411.95 635.37 1413.39 635.31 1414.5 635.28C1414.47 632.49 1413.51 631.62 1410.6 631.62C1409.1 631.62 1407.33 631.83 1405.05 632.31V630.12C1407 629.67 1408.56 629.43 1410.6 629.43C1415.07 629.43 1417.05 630.87 1417.05 635.28V645H1414.5V642.84H1414.17C1413.21 644.43 1411.68 645.42 1409.19 645.42ZM1406.55 640.62C1406.58 642.3 1407.81 643.38 1409.76 643.38C1412.1 643.38 1413.9 641.91 1414.5 639.75V637.23C1413.54 637.26 1412.34 637.32 1410.99 637.44C1408.11 637.68 1406.55 638.67 1406.55 640.62Z" fill="black"/>
<path d="M1026.25 565V562.9H1026.97C1028.53 562.9 1029.4 562.15 1029.88 558.94C1030.42 555.28 1030.45 552.94 1030.6 549.79H1041.52V565H1038.94V551.89H1032.94C1032.85 553.99 1032.67 556.3 1032.37 558.85C1031.8 563.74 1030.18 565 1027.3 565H1026.25ZM1045.08 565V549.79H1047.69C1047.69 553.78 1047.57 559.06 1047.24 563.11H1047.84C1049.64 559.12 1052.58 553.84 1054.8 549.79H1058.91V565H1056.33C1056.33 561.01 1056.42 555.73 1056.75 551.68H1056.15C1054.26 555.76 1051.32 561.01 1049.16 565H1045.08ZM1062.48 565V549.79H1067.07C1068.72 554.17 1069.95 557.89 1071.48 563.05H1072.08C1073.61 557.89 1074.84 554.17 1076.52 549.79H1081.02V565H1078.44C1078.44 560.92 1078.47 556.81 1078.68 551.74H1078.08C1076.52 556.12 1075.14 560.41 1073.61 565H1069.89C1068.39 560.44 1066.98 556.12 1065.39 551.74H1064.79C1065 556.81 1065.03 560.92 1065.03 565H1062.48ZM1091.74 565.45C1087.18 565.45 1084.12 562.21 1084.12 557.41V557.11C1084.12 552.46 1087.18 549.34 1091.74 549.34C1096.33 549.34 1099.45 552.46 1099.45 557.08V557.38C1099.45 562.21 1096.33 565.45 1091.74 565.45ZM1086.7 557.29C1086.7 561.1 1088.59 563.35 1091.77 563.32C1094.95 563.32 1096.87 561.07 1096.87 557.26C1096.87 553.6 1094.95 551.47 1091.77 551.47C1088.59 551.47 1086.7 553.6 1086.7 557.29ZM1102.5 565V549.79H1105.08V555.97H1113.3V549.79H1115.82V565H1113.3V558.1H1105.08V565H1102.5ZM1124.05 565.42C1120.75 565.42 1118.83 563.68 1118.83 560.68C1118.83 557.23 1121.26 555.7 1125.52 555.46C1126.81 555.37 1128.25 555.31 1129.36 555.28C1129.33 552.49 1128.37 551.62 1125.46 551.62C1123.96 551.62 1122.19 551.83 1119.91 552.31V550.12C1121.86 549.67 1123.42 549.43 1125.46 549.43C1129.93 549.43 1131.91 550.87 1131.91 555.28V565H1129.36V562.84H1129.03C1128.07 564.43 1126.54 565.42 1124.05 565.42ZM1121.41 560.62C1121.44 562.3 1122.67 563.38 1124.62 563.38C1126.96 563.38 1128.76 561.91 1129.36 559.75V557.23C1128.4 557.26 1127.2 557.32 1125.85 557.44C1122.97 557.68 1121.41 558.67 1121.41 560.62ZM1134.14 569.2V562.87H1135.97C1138.28 558.76 1138.67 554.14 1138.91 549.79H1149.47V562.87H1151.54V569.2H1148.93V565H1136.75V569.2H1134.14ZM1138.88 562.87H1146.89V551.92H1141.31C1140.98 556.9 1140.14 560.11 1138.88 562.57V562.87Z" fill="black"/>
<path d="M1167.79 569V552.5L1162.88 552.531V550.484C1166.63 550.484 1167.89 550.043 1168.01 546.737H1170.53V569H1167.79ZM1182.25 569.472C1177.18 569.472 1173.81 566.009 1173.87 557.979C1173.94 550.264 1177.31 546.265 1183.48 546.265C1185.05 546.265 1187 546.454 1188.61 546.926V549.351C1186.34 548.784 1184.74 548.689 1183.54 548.689C1178.47 548.815 1176.23 552.153 1176.23 558.577L1176.64 558.64C1177.78 556.089 1180.05 554.767 1183.01 554.767C1187.13 554.767 1189.96 557.664 1189.96 561.978C1189.96 566.449 1186.85 569.472 1182.25 569.472ZM1177.21 562.23C1177.21 565.347 1179.19 567.237 1182.25 567.237C1185.3 567.237 1187.32 565.253 1187.32 562.072C1187.32 558.986 1185.37 557.066 1182.38 557.066C1179.23 557.066 1177.21 559.081 1177.21 562.23Z" fill="#FF9330"/>
<path d="M1216.97 648V642.363H1205.69V639.687L1215.55 625.737H1219.71V640.096L1222.82 640.065V642.363H1219.71V648H1216.97ZM1208.18 640.128H1216.97C1217 636.034 1217 631.909 1217.22 627.941H1216.68L1208.18 639.876V640.128Z" fill="#FF9330"/>
<path d="M834.911 342.45C829.781 342.45 826.961 338.55 826.991 331.59C827.051 324.21 829.931 320.82 835.961 320.82C837.791 320.82 839.171 320.82 841.031 320.61V322.8C839.111 323.1 837.371 323.04 836.111 323.1C831.701 323.25 829.331 324.54 829.181 332.76L829.541 332.85C830.441 329.28 832.481 327.75 835.541 327.75C839.771 327.75 842.501 330.66 842.501 334.95C842.501 339.45 839.441 342.45 834.911 342.45ZM830.351 335.28C830.351 338.4 832.121 340.35 834.941 340.35C838.031 340.35 839.981 338.28 839.981 335.04C839.981 331.86 838.151 329.88 835.271 329.88C832.241 329.88 830.351 331.95 830.351 335.28ZM852.628 342.48C848.038 342.48 844.948 339.24 844.948 334.41V334.14C844.948 329.49 847.948 326.34 852.388 326.34C857.038 326.34 859.738 329.58 859.618 335.07H847.498C847.738 338.55 849.748 340.38 852.568 340.38C855.058 340.38 856.888 339.15 857.278 337.11H859.738C859.288 340.32 856.438 342.45 852.628 342.48ZM847.558 333.03H856.978C856.828 330.12 855.118 328.41 852.418 328.41C849.748 328.41 847.948 330.12 847.558 333.03ZM862.831 342V326.79H872.611V328.92H865.441V342H862.831ZM881.632 342.48C877.042 342.48 873.952 339.24 873.952 334.41V334.14C873.952 329.49 876.952 326.34 881.392 326.34C886.042 326.34 888.742 329.58 888.622 335.07H876.502C876.742 338.55 878.752 340.38 881.572 340.38C884.062 340.38 885.892 339.15 886.282 337.11H888.742C888.292 340.32 885.442 342.45 881.632 342.48ZM876.562 333.03H885.982C885.832 330.12 884.122 328.41 881.422 328.41C878.752 328.41 876.952 330.12 876.562 333.03ZM891.834 342V326.79H896.424C898.074 331.17 899.304 334.89 900.834 340.05H901.434C902.964 334.89 904.194 331.17 905.874 326.79H910.374V342H907.794C907.794 337.92 907.824 333.81 908.034 328.74H907.434C905.874 333.12 904.494 337.41 902.964 342H899.244C897.744 337.44 896.334 333.12 894.744 328.74H894.144C894.354 333.81 894.384 337.92 894.384 342H891.834ZM921.094 342.45C916.534 342.45 913.474 339.21 913.474 334.41V334.11C913.474 329.46 916.534 326.34 921.094 326.34C925.684 326.34 928.804 329.46 928.804 334.08V334.38C928.804 339.21 925.684 342.45 921.094 342.45ZM916.054 334.29C916.054 338.1 917.944 340.35 921.124 340.32C924.304 340.32 926.224 338.07 926.224 334.26C926.224 330.6 924.304 328.47 921.124 328.47C917.944 328.47 916.054 330.6 916.054 334.29ZM935.353 342V328.92H929.743V326.79H943.513V328.92H937.903V342H935.353Z" fill="black"/>
<path d="M960.321 345.441C955.377 345.441 952.323 342.575 952.26 337.946H954.779C954.936 341.19 957.109 343.174 960.51 343.205C963.344 343.205 965.611 341.725 965.611 338.891C965.611 335.931 963.123 334.451 958.148 334.357V332.184C962.651 332.121 964.698 330.704 964.698 328.311C964.698 325.98 962.777 324.532 960.163 324.532C957.109 324.532 955.094 326.61 954.968 329.759H952.449C952.48 325.288 955.44 322.265 960.163 322.265C964.289 322.265 967.343 324.626 967.343 327.996C967.343 330.483 965.643 332.467 962.651 332.877V333.443C966.146 333.727 968.351 335.837 968.351 339.017C968.351 342.922 964.95 345.441 960.321 345.441ZM981.448 345V339.363H970.174V336.687L980.03 322.737H984.187V337.096L987.305 337.065V339.363H984.187V345H981.448ZM972.662 337.128H981.448C981.479 333.034 981.479 328.909 981.699 324.941H981.164L972.662 336.876V337.128Z" fill="#FF9330"/>
<path d="M952.794 443V426.5L947.882 426.531V424.484C951.629 424.484 952.889 424.043 953.014 420.737H955.534V443H952.794ZM967.407 443.472C961.298 443.472 958.968 438.686 958.968 432.388V431.38C958.968 425.051 961.298 420.265 967.407 420.265C973.484 420.265 975.783 425.051 975.783 431.38V432.388C975.783 438.686 973.484 443.472 967.407 443.472ZM961.77 432.451C961.77 437.993 963.471 441.205 967.407 441.205C971.312 441.205 972.98 437.993 972.98 432.451V431.286C972.98 425.775 971.312 422.532 967.407 422.532C963.471 422.532 961.77 425.775 961.77 431.286V432.451Z" fill="#FF9330"/>
</g>
<path d="M467.718 327.078L379.946 382.357L259.451 339.539L129.056 228.049L31.7053 440.529L176.079 445.31L259.048 488.43L338.509 575.691L403.959 686.313L479.412 688.532L431.16 663.454L384.973 553.876L476.116 576.955L495.62 657.345L616.275 623.64L546.728 613.653L533.921 541.228L448.619 486.058L542.509 466.5L539 379.5L418.328 422.11L522.597 364.568L608.4 292.945L467.718 327.078Z" fill="#FF9330"/>
<path d="M1682 707.137L1708.5 606.851L1825.83 556.003L1997.24 548.634L1923.55 326.833L1814.69 421.787L1724.6 446.824L1606.97 437.184L1483.67 400.902L1426.96 450.731L1479.36 436.17L1587.86 484.824L1505.46 530.095L1436.38 484.595L1371.11 591.523L1428.79 551.403L1487.54 595.644L1587.56 577.829L1532.22 656.159L1539.4 728.931L1653.32 603.948L1616.29 717.138L1602.37 828.035L1682 707.137Z" fill="black"/>
</svg>
