<svg width="1440" height="1024" viewBox="0 0 1440 1024" fill="none" xmlns="http://www.w3.org/2000/svg">
<g clip-path="url(#clip0_312_590)">
<rect width="1440" height="1024" fill="#FF9330"/>
<path d="M406.825 386.55C400.06 386.605 397.2 383.965 397.2 378.025V369.115H401.93V376.595C401.93 381.38 403.195 382.7 407.815 382.645C410.07 382.645 412.38 382.37 414.58 381.93V369.115H419.365V397H414.58V385.395C412.05 386.055 409.355 386.495 406.825 386.55ZM439.052 397.88C430.637 397.88 424.972 391.94 424.972 383.085V382.59C424.972 374.065 430.472 368.29 438.612 368.29C447.137 368.29 452.087 374.23 451.867 384.295H429.647C430.087 390.675 433.772 394.03 438.942 394.03C443.507 394.03 446.862 391.775 447.577 388.035H452.087C451.262 393.92 446.037 397.825 439.052 397.88ZM429.757 380.555H447.027C446.752 375.22 443.617 372.085 438.667 372.085C433.772 372.085 430.472 375.22 429.757 380.555ZM454.435 397L464.665 382.81L454.6 369.115H460.21C462.96 372.91 465.655 376.705 468.35 380.61H469.12C471.76 376.705 474.345 372.91 477.095 369.115H482.43L472.805 382.81L483.255 397H477.645C474.73 393.095 471.98 389.19 469.175 385.12H468.35C465.545 389.19 462.74 393.095 459.88 397H454.435ZM499.421 397.825C491.061 397.825 485.451 391.885 485.451 383.085V382.535C485.451 374.01 491.061 368.29 499.421 368.29C507.836 368.29 513.556 374.01 513.556 382.48V383.03C513.556 391.885 507.836 397.825 499.421 397.825ZM490.181 382.865C490.181 389.85 493.646 393.975 499.476 393.92C505.306 393.92 508.826 389.795 508.826 382.81C508.826 376.1 505.306 372.195 499.476 372.195C493.646 372.195 490.181 376.1 490.181 382.865ZM516.369 397V393.15H517.689C520.549 393.15 522.144 391.775 523.024 385.89C524.014 379.18 524.069 374.89 524.344 369.115H544.364V397H539.634V372.965H528.634C528.469 376.815 528.139 381.05 527.589 385.725C526.544 394.69 523.574 397 518.294 397H516.369Z" fill="#131313"/>
<path d="M819.862 396.64C813.502 396.64 809.502 393.48 809.502 388.52C809.502 384.88 811.662 382.08 815.502 381.04V380.48C812.302 379.52 810.502 377.2 810.502 374.2C810.502 369.84 814.102 367.12 819.862 367.12C825.582 367.12 829.182 369.84 829.182 374.2C829.182 377.2 827.422 379.56 824.222 380.48V381.04C828.062 382.08 830.182 384.88 830.182 388.52C830.182 393.52 826.182 396.64 819.862 396.64ZM813.102 387.92C813.102 391.44 815.702 393.64 819.862 393.64C823.982 393.64 826.622 391.44 826.622 387.92C826.622 384.4 823.982 382.2 819.862 382.2C815.702 382.2 813.102 384.4 813.102 387.92ZM813.942 374.76C813.942 377.68 816.222 379.56 819.822 379.56C823.462 379.56 825.742 377.68 825.742 374.76C825.742 371.8 823.462 370 819.862 370C816.222 370 813.942 371.8 813.942 374.76Z" fill="white"/>
<circle cx="863" cy="383" r="23" fill="black"/>
<path d="M867.684 375.679L865.554 372.974L858.72 375.679V382.085L865.554 384.079L869.113 390.485L861.578 395.212L858.72 391.548" stroke="white" stroke-width="2.44248"/>
<path d="M851.882 387.496L855.157 384.079L856.58 382.086L851.882 377.814L853.021 381.516L848.75 383.509L851.17 384.079L851.882 387.496Z" fill="white"/>
<path d="M851.882 387.496L855.157 384.079L856.58 382.086L851.882 377.814L853.021 381.516L848.75 383.509L851.17 384.079L851.882 387.496Z" fill="white"/>
<path d="M873.098 389.204L869.824 385.787L868.4 383.794L873.098 379.523L871.959 383.225L876.23 385.218L873.81 385.787L873.098 389.204Z" fill="white"/>
<path d="M873.098 389.204L869.824 385.787L868.4 383.794L873.098 379.523L871.959 383.225L876.23 385.218L873.81 385.787L873.098 389.204Z" fill="white"/>
<path d="M412.05 503.825C402.645 503.825 397.475 496.675 397.53 483.915C397.64 470.385 402.92 464.17 413.975 464.17C417.33 464.17 419.86 464.17 423.27 463.785V467.8C419.75 468.35 416.56 468.24 414.25 468.35C406.165 468.625 401.82 470.99 401.545 486.06L402.205 486.225C403.855 479.68 407.595 476.875 413.205 476.875C420.96 476.875 425.965 482.21 425.965 490.075C425.965 498.325 420.355 503.825 412.05 503.825ZM403.69 490.68C403.69 496.4 406.935 499.975 412.105 499.975C417.77 499.975 421.345 496.18 421.345 490.24C421.345 484.41 417.99 480.78 412.71 480.78C407.155 480.78 403.69 484.575 403.69 490.68ZM428.552 503V499.15H429.872C432.732 499.15 434.327 497.775 435.207 491.89C436.197 485.18 436.252 480.89 436.527 475.115H456.547V503H451.817V478.965H440.817C440.652 482.815 440.322 487.05 439.772 491.725C438.727 500.69 435.757 503 430.477 503H428.552ZM476.164 503.825C467.804 503.825 462.194 497.885 462.194 489.085V488.535C462.194 480.01 467.804 474.29 476.164 474.29C484.579 474.29 490.299 480.01 490.299 488.48V489.03C490.299 497.885 484.579 503.825 476.164 503.825ZM466.924 488.865C466.924 495.85 470.389 499.975 476.219 499.92C482.049 499.92 485.569 495.795 485.569 488.81C485.569 482.1 482.049 478.195 476.219 478.195C470.389 478.195 466.924 482.1 466.924 488.865ZM514.261 503L503.316 490.845H500.676V503H495.891V475.115H500.676V486.94H503.151L513.546 475.115H519.156L506.836 488.755L520.311 503H514.261ZM524.09 503V475.115H528.82V486.445H543.89V475.115H548.51V503H543.89V490.35H528.82V503H524.09ZM568.171 503.825C559.811 503.825 554.201 497.885 554.201 489.085V488.535C554.201 480.01 559.811 474.29 568.171 474.29C576.586 474.29 582.306 480.01 582.306 488.48V489.03C582.306 497.885 576.586 503.825 568.171 503.825ZM558.931 488.865C558.931 495.85 562.396 499.975 568.226 499.92C574.056 499.92 577.576 495.795 577.576 488.81C577.576 482.1 574.056 478.195 568.226 478.195C562.396 478.195 558.931 482.1 558.931 488.865ZM594.313 503V479.02H584.028V475.115H609.273V479.02H598.988V503H594.313Z" fill="#131313"/>
<path d="M802.329 502V481.04L796.089 481.08V478.48C800.849 478.48 802.449 477.92 802.609 473.72H805.809V502H802.329ZM820.691 502.6C814.251 502.6 809.971 498.2 810.051 488C810.131 478.2 814.411 473.12 822.251 473.12C824.251 473.12 826.731 473.36 828.771 473.96V477.04C825.891 476.32 823.851 476.2 822.331 476.2C815.891 476.36 813.051 480.6 813.051 488.76L813.571 488.84C815.011 485.6 817.891 483.92 821.651 483.92C826.891 483.92 830.491 487.6 830.491 493.08C830.491 498.76 826.531 502.6 820.691 502.6ZM814.291 493.4C814.291 497.36 816.811 499.76 820.691 499.76C824.571 499.76 827.131 497.24 827.131 493.2C827.131 489.28 824.651 486.84 820.851 486.84C816.851 486.84 814.291 489.4 814.291 493.4Z" fill="white"/>
<circle cx="863" cy="489" r="23" fill="black"/>
<path d="M867.684 481.679L865.554 478.974L858.72 481.679V488.085L865.554 490.079L869.113 496.485L861.578 501.212L858.72 497.548" stroke="white" stroke-width="2.44248"/>
<path d="M851.882 493.496L855.157 490.079L856.58 488.086L851.882 483.814L853.021 487.516L848.75 489.509L851.17 490.079L851.882 493.496Z" fill="white"/>
<path d="M851.882 493.496L855.157 490.079L856.58 488.086L851.882 483.814L853.021 487.516L848.75 489.509L851.17 490.079L851.882 493.496Z" fill="white"/>
<path d="M873.098 495.204L869.824 491.787L868.4 489.794L873.098 485.523L871.959 489.225L876.23 491.218L873.81 491.787L873.098 495.204Z" fill="white"/>
<path d="M873.098 495.204L869.824 491.787L868.4 489.794L873.098 485.523L871.959 489.225L876.23 491.218L873.81 491.787L873.098 495.204Z" fill="white"/>
<path d="M696.856 659.3C697.056 650.1 702.556 641.5 716.156 632.2C728.456 623.7 736.156 617.7 736.156 609C736.156 601.3 730.356 597.2 721.856 597.2C712.656 597.2 705.856 601.9 705.456 613.8H697.256C697.356 598.4 706.456 590.1 721.856 590.1C735.856 590.1 744.856 597.1 744.856 608.8C744.856 622.7 732.756 630.9 722.556 637.5C710.356 645.5 706.756 651.4 706.556 654.4L746.356 654.3V662H696.756L696.856 659.3ZM787.578 662V644.1H751.778V635.6L783.078 591.3H796.278V636.9L806.178 636.8V644.1H796.278V662H787.578ZM759.678 637H787.578C787.678 624 787.678 610.9 788.378 598.3H786.678L759.678 636.2V637Z" fill="black"/>
<circle cx="879" cy="623" r="39" fill="white"/>
<path d="M886.943 610.586L883.332 605.999L871.744 610.586V621.45L883.332 624.829L889.367 635.693L876.589 643.708L871.744 637.496" stroke="black" stroke-width="4.14159"/>
<path d="M860.147 630.623L865.7 624.829L868.114 621.449L860.147 614.207L862.078 620.484L854.836 623.864L858.94 624.829L860.147 630.623Z" fill="black"/>
<path d="M860.147 630.623L865.7 624.829L868.114 621.449L860.147 614.207L862.078 620.484L854.836 623.864L858.94 624.829L860.147 630.623Z" fill="black"/>
<path d="M896.122 633.52L890.57 627.726L888.156 624.346L896.122 617.104L894.191 623.381L901.434 626.761L897.33 627.726L896.122 633.52Z" fill="black"/>
<path d="M896.122 633.52L890.57 627.726L888.156 624.346L896.122 617.104L894.191 623.381L901.434 626.761L897.33 627.726L896.122 633.52Z" fill="black"/>
<path d="M1101.46 789.398L1079 937L1135.71 1040.27L1439.5 1084L1498.5 789.398L1315.94 816.337L1229.48 772L1101.46 789.398Z" fill="#E4E4E4"/>
<path d="M1179.04 914.6C1170.36 914.6 1165.96 908.44 1165.96 900.56V899.16C1165.96 891.28 1170.36 885.12 1179.04 885.12C1187.68 885.12 1192.2 891.28 1192.2 899.16V900.56C1192.2 908.44 1187.76 914.6 1179.04 914.6ZM1169.68 900.56C1169.68 907.16 1173.32 911.4 1179.04 911.4C1184.8 911.4 1188.48 907.16 1188.48 900.56V899.2C1188.48 892.56 1184.8 888.36 1179.04 888.36C1173.32 888.36 1169.68 892.56 1169.68 899.2V900.56ZM1207.68 914V910.04C1200.12 909.64 1195.88 906.04 1195.88 899.8C1195.88 893.32 1200.12 890.04 1207.68 889.68V885.72H1211.4V889.68C1218.92 890.04 1223.16 893.32 1223.16 899.8C1223.16 906 1218.92 909.64 1211.4 910.04V914H1207.68ZM1199.56 899.84C1199.56 904.12 1202.36 906.44 1207.68 906.84V892.92C1202.48 893.24 1199.56 895.36 1199.56 899.84ZM1211.4 906.8C1216.6 906.44 1219.56 904.08 1219.56 899.84C1219.56 895.36 1216.6 893.24 1211.4 892.92V906.8ZM1239.94 914.6C1231.26 914.6 1226.86 908.44 1226.86 900.56V899.16C1226.86 891.28 1231.26 885.12 1239.94 885.12C1248.58 885.12 1253.1 891.28 1253.1 899.16V900.56C1253.1 908.44 1248.66 914.6 1239.94 914.6ZM1230.58 900.56C1230.58 907.16 1234.22 911.4 1239.94 911.4C1245.7 911.4 1249.38 907.16 1249.38 900.56V899.2C1249.38 892.56 1245.7 888.36 1239.94 888.36C1234.22 888.36 1230.58 892.56 1230.58 899.2V900.56ZM1257.77 914V885.72H1268.81C1274.57 885.72 1278.33 888.4 1278.33 894C1278.33 899.64 1274.57 902.68 1268.81 902.68H1261.49V914H1257.77ZM1261.49 899.44H1268.53C1272.61 899.44 1274.57 897.56 1274.57 894C1274.57 890.44 1272.61 888.96 1268.53 888.96H1261.49V899.44ZM1282.27 914V885.72H1289.43C1292.15 894.12 1294.87 902.52 1297.23 911.32H1298.39C1300.71 902.52 1303.35 894.12 1306.03 885.72L1313.15 885.76V914H1309.43C1309.43 905.64 1309.35 897.24 1309.63 888.44H1308.55C1306.15 897.32 1303.39 905.64 1300.83 914H1294.71C1292.07 905.6 1289.27 897.24 1286.79 888.4H1285.71C1285.99 897.24 1285.91 905.6 1285.91 914H1282.27ZM1338.76 914C1338.76 905.64 1338.8 897.28 1338.92 888.4H1338C1334.16 897.28 1330 905.64 1325.88 914H1318.6V885.72H1322.32C1322.32 894.12 1322.32 902.44 1322.16 911.2H1323.36C1327.2 902.44 1331.36 894.12 1335.44 885.72H1342.52V914H1338.76ZM1355.29 914V888.96H1345.85V885.72H1368.45V888.96H1359.01V914H1355.29ZM1371.76 914V885.72H1375.48V897H1382.92C1388.96 897 1392.36 900.04 1392.36 905.44C1392.36 910.84 1388.96 914 1382.92 914H1371.76ZM1375.48 910.8H1382.32C1386.64 910.8 1388.64 908.84 1388.64 905.44C1388.64 902.08 1386.64 900.16 1382.32 900.16H1375.48V910.8ZM1176.64 958.56C1169 958.56 1165.68 954.84 1165.56 949.08H1168.92C1169.2 953.92 1172.24 955.4 1176.52 955.4C1180.92 955.4 1184.04 953.76 1184.04 950.08C1184.04 946.04 1180.36 944.84 1174.88 944.68C1174.32 944.68 1173.8 944.64 1172.84 944.64V941.64C1173.8 941.64 1174.28 941.64 1174.88 941.6C1180.36 941.36 1182.88 939.84 1182.88 936.8C1182.88 933.64 1180.16 932.28 1176.4 932.28C1172.4 932.28 1169.52 933.92 1169.28 938.56H1165.92C1166.08 932.68 1169.64 929.12 1176.48 929.12C1182.24 929.12 1186.4 931.76 1186.4 936.44C1186.4 939.6 1184.4 942.12 1179.84 942.64V943.36C1184.64 943.64 1187.68 945.84 1187.68 950.24C1187.68 955.68 1183 958.56 1176.64 958.56ZM1189.92 958L1198.92 929.72H1206.08L1215.16 958H1211.24L1208.4 949H1196.56L1193.72 958H1189.92ZM1197.44 946H1207.56C1206.16 941.64 1204.68 937.28 1203.48 932.44H1201.48C1200.28 937.28 1198.8 941.64 1197.44 946ZM1218.95 958V929.72H1222.67V942.12H1224.95L1234.87 929.72H1239.19L1228.27 943.2L1239.63 958H1235.11L1225.59 945.32H1222.67V958H1218.95ZM1241.56 958L1250.56 929.72H1257.72L1266.8 958H1262.88L1260.04 949H1248.2L1245.36 958H1241.56ZM1249.08 946H1259.2C1257.8 941.64 1256.32 937.28 1255.12 932.44H1253.12C1251.92 937.28 1250.44 941.64 1249.08 946ZM1280.31 958.56C1272.67 958.56 1269.35 954.84 1269.23 949.08H1272.59C1272.87 953.92 1275.91 955.4 1280.19 955.4C1284.59 955.4 1287.71 953.76 1287.71 950.08C1287.71 946.04 1284.03 944.84 1278.55 944.68C1277.99 944.68 1277.47 944.64 1276.51 944.64V941.64C1277.47 941.64 1277.95 941.64 1278.55 941.6C1284.03 941.36 1286.55 939.84 1286.55 936.8C1286.55 933.64 1283.83 932.28 1280.07 932.28C1276.07 932.28 1273.19 933.92 1272.95 938.56H1269.59C1269.75 932.68 1273.31 929.12 1280.15 929.12C1285.91 929.12 1290.07 931.76 1290.07 936.44C1290.07 939.6 1288.07 942.12 1283.51 942.64V943.36C1288.31 943.64 1291.35 945.84 1291.35 950.24C1291.35 955.68 1286.67 958.56 1280.31 958.56Z" fill="#131313"/>
<path d="M1293 179.5L1334 213.5" stroke="black" stroke-width="8"/>
<path d="M1331 170L1311.5 213.5" stroke="black" stroke-width="8"/>
<path d="M920.554 393V377.28L915.874 377.31V375.36C919.444 375.36 920.644 374.94 920.764 371.79H923.164V393H920.554Z" fill="white"/>
</g>
<defs>
<clipPath id="clip0_312_590">
<rect width="1440" height="1024" fill="white"/>
</clipPath>
</defs>
</svg>
