<svg width="126" height="186" viewBox="0 0 126 186" fill="none" xmlns="http://www.w3.org/2000/svg">
<path fill-rule="evenodd" clip-rule="evenodd" d="M57.0926 1.15211L55.1696 0.606079L53.5785 1.81621L18.0785 28.8162L16.5 30.0168V32V69.3964L0 71.5L22.5 162.5L35.5 185.5H100.5L125.5 113V55.5L106.595 57.9102L100.458 15.9215L100.083 13.3594L97.5926 12.6521L57.0926 1.15211ZM98.6577 58.9221L92.9165 19.6406L56.8304 9.39391L24.5 33.9832V68.3765L98.6577 58.9221Z" fill="black"/>
<path d="M39.8622 131.64C33.5022 131.64 29.5022 128.48 29.5022 123.52C29.5022 119.88 31.6622 117.08 35.5022 116.04V115.48C32.3022 114.52 30.5022 112.2 30.5022 109.2C30.5022 104.84 34.1022 102.12 39.8622 102.12C45.5822 102.12 49.1822 104.84 49.1822 109.2C49.1822 112.2 47.4222 114.56 44.2222 115.48V116.04C48.0622 117.08 50.1822 119.88 50.1822 123.52C50.1822 128.52 46.1822 131.64 39.8622 131.64ZM33.1022 122.92C33.1022 126.44 35.7022 128.64 39.8622 128.64C43.9822 128.64 46.6222 126.44 46.6222 122.92C46.6222 119.4 43.9822 117.2 39.8622 117.2C35.7022 117.2 33.1022 119.4 33.1022 122.92ZM33.9422 109.76C33.9422 112.68 36.2222 114.56 39.8222 114.56C43.4622 114.56 45.7422 112.68 45.7422 109.76C45.7422 106.8 43.4622 105 39.8622 105C36.2222 105 33.9422 106.8 33.9422 109.76Z" fill="white"/>
<circle cx="83" cy="118" r="23" fill="#FF9330"/>
<path d="M87.6837 110.679L85.554 107.974L78.7201 110.679V117.086L85.554 119.079L89.1133 125.486L81.5775 130.212L78.7201 126.549" stroke="white" stroke-width="2.44248"/>
<path d="M71.8822 122.496L75.1568 119.079L76.5805 117.086L71.8822 112.814L73.0212 116.516L68.75 118.509L71.1703 119.079L71.8822 122.496Z" fill="white"/>
<path d="M71.8822 122.496L75.1568 119.079L76.5805 117.086L71.8822 112.814L73.0212 116.516L68.75 118.509L71.1703 119.079L71.8822 122.496Z" fill="white"/>
<path d="M93.0983 124.204L89.8237 120.787L88.4 118.794L93.0983 114.523L91.9593 118.225L96.2305 120.218L93.8101 120.787L93.0983 124.204Z" fill="white"/>
<path d="M93.0983 124.204L89.8237 120.787L88.4 118.794L93.0983 114.523L91.9593 118.225L96.2305 120.218L93.8101 120.787L93.0983 124.204Z" fill="white"/>
</svg>
