<svg width="155" height="229" viewBox="0 0 155 229" fill="none" xmlns="http://www.w3.org/2000/svg">
<path d="M27.6992 200.185L0 88.1573L154.5 68.4601V139.247L123.723 228.5H43.7032L27.6992 200.185Z" fill="black"/>
<path d="M25.2383 108.47V39.5298L68.9415 6.29077L118.8 20.4481L130.495 100.468" stroke="black" stroke-width="9.84861"/>
<circle cx="85.5" cy="151.5" r="33.5" fill="#FF9330"/>
<path d="M92.3202 140.837L89.2181 136.897L79.2644 140.837V150.168L89.2181 153.071L94.4023 162.403L83.4264 169.288L79.2644 163.951" stroke="white" stroke-width="3.55752"/>
<path d="M69.3082 158.048L74.0777 153.071L76.1514 150.168L69.3082 143.947L70.9671 149.339L64.7461 152.242L68.2714 153.071L69.3082 158.048Z" fill="white"/>
<path d="M69.3082 158.048L74.0777 153.071L76.1514 150.168L69.3082 143.947L70.9671 149.339L64.7461 152.242L68.2714 153.071L69.3082 158.048Z" fill="white"/>
<path d="M100.207 160.537L95.4379 155.56L93.3643 152.657L100.207 146.436L98.5485 151.827L104.77 154.73L101.244 155.56L100.207 160.537Z" fill="white"/>
<path d="M100.207 160.537L95.4379 155.56L93.3643 152.657L100.207 146.436L98.5485 151.827L104.77 154.73L101.244 155.56L100.207 160.537Z" fill="white"/>
</svg>
