<svg width="156" height="108" viewBox="0 0 156 108" fill="none" xmlns="http://www.w3.org/2000/svg">
<path d="M0 33.5L39.5 0H99.5L156 40.5L144 82L99.5 108L39.5 97L14 92L0 33.5Z" fill="black"/>
<path d="M25.4347 64.92C25.5147 61.24 27.7147 57.8 33.1547 54.08C38.0747 50.68 41.1547 48.28 41.1547 44.8C41.1547 41.72 38.8347 40.08 35.4347 40.08C31.7547 40.08 29.0347 41.96 28.8747 46.72H25.5947C25.6347 40.56 29.2747 37.24 35.4347 37.24C41.0347 37.24 44.6347 40.04 44.6347 44.72C44.6347 50.28 39.7947 53.56 35.7147 56.2C30.8347 59.4 29.3947 61.76 29.3147 62.96L45.2347 62.92V66H25.3947L25.4347 64.92ZM58.3634 66.56C52.0834 66.56 48.2034 62.92 48.1234 57.04H51.3234C51.5234 61.16 54.2834 63.68 58.6034 63.72C62.2034 63.72 65.0834 61.84 65.0834 58.24C65.0834 54.48 61.9234 52.6 55.6034 52.48V49.72C61.3234 49.64 63.9234 47.84 63.9234 44.8C63.9234 41.84 61.4834 40 58.1634 40C54.2834 40 51.7234 42.64 51.5634 46.64H48.3634C48.4034 40.96 52.1634 37.12 58.1634 37.12C63.4034 37.12 67.2834 40.12 67.2834 44.4C67.2834 47.56 65.1234 50.08 61.3234 50.6V51.32C65.7634 51.68 68.5634 54.36 68.5634 58.4C68.5634 63.36 64.2434 66.56 58.3634 66.56Z" fill="white"/>
<circle cx="101" cy="53" r="23" fill="#FF9330"/>
<path d="M105.684 45.6789L103.554 42.9738L96.7201 45.6789V52.0857L103.554 54.0789L107.113 60.4856L99.5775 65.2124L96.7201 61.5487" stroke="white" stroke-width="2.44248"/>
<path d="M89.8822 57.4958L93.1568 54.0788L94.5805 52.0856L89.8822 47.8145L91.0212 51.5161L86.75 53.5093L89.1703 54.0788L89.8822 57.4958Z" fill="white"/>
<path d="M89.8822 57.4958L93.1568 54.0788L94.5805 52.0856L89.8822 47.8145L91.0212 51.5161L86.75 53.5093L89.1703 54.0788L89.8822 57.4958Z" fill="white"/>
<path d="M111.098 59.2043L107.824 55.7873L106.4 53.7941L111.098 49.5229L109.959 53.2246L114.23 55.2178L111.81 55.7873L111.098 59.2043Z" fill="white"/>
<path d="M111.098 59.2043L107.824 55.7873L106.4 53.7941L111.098 49.5229L109.959 53.2246L114.23 55.2178L111.81 55.7873L111.098 59.2043Z" fill="white"/>
</svg>
